<svg width="24" height="25" viewBox="0 0 24 25" fill="none" xmlns="http://www.w3.org/2000/svg">
<g filter="url(#filter0_d_0_401)">
<mask id="path-1-outside-1_0_401" maskUnits="userSpaceOnUse" x="2.35718" y="1" width="20" height="21" fill="black">
<rect fill="white" x="2.35718" y="1" width="20" height="21"/>
<path fill-rule="evenodd" clip-rule="evenodd" d="M10.1426 21C10.1426 21 7.14902 18.6946 6.09586 16.9286C5.0427 15.1626 3.04701 12.9128 3.39806 11.5C3.74912 10.0872 5.0427 9.64196 6.09586 10.7016C7.14902 11.7612 7.85847 14.057 8.56058 13.7038C9.26268 13.3506 8.7361 9.99516 8.03399 8.05256C7.33189 6.10996 6.59988 2 8.03399 2C9.46811 2 9.46811 3.35714 10.1426 5.39286C10.817 7.42857 10.2904 10.1429 10.817 10.1429C11.3436 10.1429 11.5445 9.66871 11.5445 8.78571C11.5445 8.54575 11.5913 8.34294 11.6862 8.17481C11.9407 7.72426 12.5411 7.52276 13.5148 7.52276C14.8519 7.52276 14.1893 10.1429 14.8637 10.1429C15.5382 10.1429 15.5382 10.1985 15.5382 8.78571C15.5382 7.37292 16.1636 7.52276 17.5125 7.52276C18.8614 7.52276 18.2083 10.1429 18.9104 10.1429C19.6125 10.1429 18.9104 8.78571 19.5849 8.78571C20.2593 8.78571 20.9338 8.99977 20.9338 12.1786C20.9338 15.3574 21.3125 15.5158 20.2593 16.9286C19.2061 18.3414 18.236 19.6429 18.236 19.6429C18.236 19.6429 18.236 21 17.5125 21C16.789 21 16.4158 19.6429 15.5382 19.6429C14.6605 19.6429 14.1893 21 14.1893 21H10.1426ZM18.2361 18.2857V12.8571H16.8872V18.2857H18.2361ZM14.1891 16.9286C14.1891 17.2962 14.502 18.2857 14.8636 18.2857C15.2361 18.2857 15.538 17.3024 15.538 16.9286V14.2143C15.538 13.8467 15.2252 12.8571 14.8636 12.8571C14.4911 12.8571 14.1891 13.8405 14.1891 14.2143V16.9286ZM11.4914 16.9286C11.4914 17.2962 11.8043 18.2857 12.1659 18.2857C12.5384 18.2857 12.8403 17.3024 12.8403 16.9286V14.2143C12.8403 13.8467 12.5275 12.8571 12.1659 12.8571C11.7934 12.8571 11.4914 13.8405 11.4914 14.2143V16.9286Z"/>
</mask>
<path fill-rule="evenodd" clip-rule="evenodd" d="M10.1426 21C10.1426 21 7.14902 18.6946 6.09586 16.9286C5.0427 15.1626 3.04701 12.9128 3.39806 11.5C3.74912 10.0872 5.0427 9.64196 6.09586 10.7016C7.14902 11.7612 7.85847 14.057 8.56058 13.7038C9.26268 13.3506 8.7361 9.99516 8.03399 8.05256C7.33189 6.10996 6.59988 2 8.03399 2C9.46811 2 9.46811 3.35714 10.1426 5.39286C10.817 7.42857 10.2904 10.1429 10.817 10.1429C11.3436 10.1429 11.5445 9.66871 11.5445 8.78571C11.5445 8.54575 11.5913 8.34294 11.6862 8.17481C11.9407 7.72426 12.5411 7.52276 13.5148 7.52276C14.8519 7.52276 14.1893 10.1429 14.8637 10.1429C15.5382 10.1429 15.5382 10.1985 15.5382 8.78571C15.5382 7.37292 16.1636 7.52276 17.5125 7.52276C18.8614 7.52276 18.2083 10.1429 18.9104 10.1429C19.6125 10.1429 18.9104 8.78571 19.5849 8.78571C20.2593 8.78571 20.9338 8.99977 20.9338 12.1786C20.9338 15.3574 21.3125 15.5158 20.2593 16.9286C19.2061 18.3414 18.236 19.6429 18.236 19.6429C18.236 19.6429 18.236 21 17.5125 21C16.789 21 16.4158 19.6429 15.5382 19.6429C14.6605 19.6429 14.1893 21 14.1893 21H10.1426ZM18.2361 18.2857V12.8571H16.8872V18.2857H18.2361ZM14.1891 16.9286C14.1891 17.2962 14.502 18.2857 14.8636 18.2857C15.2361 18.2857 15.538 17.3024 15.538 16.9286V14.2143C15.538 13.8467 15.2252 12.8571 14.8636 12.8571C14.4911 12.8571 14.1891 13.8405 14.1891 14.2143V16.9286ZM11.4914 16.9286C11.4914 17.2962 11.8043 18.2857 12.1659 18.2857C12.5384 18.2857 12.8403 17.3024 12.8403 16.9286V14.2143C12.8403 13.8467 12.5275 12.8571 12.1659 12.8571C11.7934 12.8571 11.4914 13.8405 11.4914 14.2143V16.9286Z" fill="white"/>
<path d="M10.1426 21L9.5324 21.7923L9.80212 22H10.1426V21ZM3.39806 11.5L4.36855 11.7411L4.36855 11.7411L3.39806 11.5ZM6.09586 10.7016L5.3866 11.4065L5.3866 11.4065L6.09586 10.7016ZM8.56058 13.7038L8.11118 12.8104L8.11118 12.8104L8.56058 13.7038ZM8.03399 8.05256L8.97445 7.71265L8.97445 7.71265L8.03399 8.05256ZM8.03399 2L8.03399 1L8.03399 1L8.03399 2ZM10.817 10.1429L10.817 11.1429L10.817 11.1429L10.817 10.1429ZM11.5445 8.78571L10.5445 8.78571L11.5445 8.78571ZM11.6862 8.17481L10.8155 7.68309L10.8155 7.68309L11.6862 8.17481ZM13.5148 7.52276L13.5148 6.52276L13.5148 6.52276L13.5148 7.52276ZM14.8637 10.1429L14.8637 9.14286L14.8637 9.14286L14.8637 10.1429ZM15.5382 8.78571L14.5382 8.78571L15.5382 8.78571ZM17.5125 7.52276L17.5125 6.52276L17.5125 6.52276L17.5125 7.52276ZM18.9104 10.1429L18.9104 11.1429L18.9104 11.1429L18.9104 10.1429ZM19.5849 8.78571L19.5849 7.78571L19.5849 7.78571L19.5849 8.78571ZM20.9338 12.1786L19.9338 12.1786L20.9338 12.1786ZM20.2593 16.9286L21.0611 17.5262L21.0611 17.5262L20.2593 16.9286ZM18.236 19.6429L17.4342 19.0452L17.236 19.3111L17.236 19.6429L18.236 19.6429ZM17.5125 21L17.5125 20L17.5125 20L17.5125 21ZM15.5382 19.6429L15.5382 18.6429L15.5382 19.6429ZM14.1893 21V22H14.9006L15.1339 21.328L14.1893 21ZM18.2361 18.2857V19.2857H19.2361V18.2857H18.2361ZM18.2361 12.8571H19.2361V11.8571H18.2361V12.8571ZM16.8872 12.8571V11.8571H15.8872V12.8571H16.8872ZM16.8872 18.2857H15.8872V19.2857H16.8872V18.2857ZM10.1426 21C10.7527 20.2077 10.7528 20.2078 10.7528 20.2078C10.7528 20.2078 10.7529 20.2079 10.7529 20.2079C10.7529 20.2079 10.7529 20.2078 10.7528 20.2078C10.7526 20.2077 10.7523 20.2074 10.7518 20.207C10.7508 20.2062 10.7491 20.2049 10.7466 20.203C10.7418 20.1993 10.7342 20.1934 10.724 20.1854C10.7037 20.1695 10.6729 20.1454 10.6329 20.1137C10.5529 20.0503 10.4363 19.9569 10.2926 19.839C10.0047 19.6028 9.61048 19.2703 9.18547 18.8854C8.30823 18.0908 7.39775 17.1593 6.95473 16.4164L5.23699 17.4408C5.84713 18.4639 6.96001 19.5681 7.84282 20.3677C8.29784 20.7798 8.71785 21.1341 9.02412 21.3853C9.1775 21.5111 9.30299 21.6117 9.39084 21.6813C9.43478 21.7161 9.46935 21.7432 9.49334 21.7619C9.50533 21.7713 9.51468 21.7786 9.52124 21.7837C9.52452 21.7862 9.52711 21.7882 9.52897 21.7896C9.5299 21.7904 9.53066 21.7909 9.53123 21.7914C9.53152 21.7916 9.53176 21.7918 9.53195 21.7919C9.53205 21.792 9.53216 21.7921 9.53221 21.7921C9.53231 21.7922 9.5324 21.7923 10.1426 21ZM6.95473 16.4164C6.67246 15.943 6.33173 15.4449 6.00567 14.9689C5.67219 14.482 5.35076 14.0137 5.0736 13.5603C4.79458 13.1038 4.58657 12.7039 4.46646 12.3633C4.34299 12.0132 4.34786 11.8244 4.36855 11.7411L2.42757 11.2589C2.27274 11.882 2.39543 12.5042 2.58032 13.0285C2.76858 13.5623 3.0595 14.1001 3.36716 14.6034C3.67668 15.1097 4.02971 15.6233 4.35565 16.0991C4.68902 16.5858 4.99268 17.0311 5.23699 17.4408L6.95473 16.4164ZM4.36855 11.7411C4.48311 11.2801 4.69871 11.154 4.78116 11.1284C4.84286 11.1091 5.05682 11.0747 5.3866 11.4065L6.80512 9.99661C6.08174 9.26881 5.12232 8.92721 4.18618 9.2189C3.27079 9.50413 2.66407 10.3071 2.42757 11.2589L4.36855 11.7411ZM5.3866 11.4065C5.80044 11.8229 6.15004 12.492 6.60204 13.2464C6.79583 13.5699 7.0396 13.9585 7.31944 14.239C7.46209 14.3819 7.67677 14.5622 7.96579 14.6634C8.29414 14.7784 8.66481 14.7707 9.00997 14.5971L8.11118 12.8104C8.28081 12.7251 8.47572 12.7229 8.62678 12.7758C8.7385 12.8149 8.77433 12.8655 8.73528 12.8264C8.65173 12.7426 8.52066 12.5573 8.31769 12.2185C7.97614 11.6484 7.44444 10.6398 6.80512 9.99661L5.3866 11.4065ZM9.00997 14.5971C9.40851 14.3966 9.6029 14.0468 9.69758 13.8086C9.79723 13.558 9.84463 13.2874 9.86853 13.0418C9.91681 12.5456 9.88661 11.9525 9.8171 11.358C9.67723 10.1619 9.35364 8.76178 8.97445 7.71265L7.09353 8.39247C7.41646 9.28594 7.70721 10.5348 7.83063 11.5903C7.89277 12.1217 7.90645 12.5551 7.87793 12.8481C7.87115 12.9178 7.86266 12.9718 7.85427 13.0118C7.84567 13.0526 7.839 13.0699 7.83908 13.0698C7.83937 13.069 7.8425 13.0612 7.84965 13.0482C7.85679 13.0351 7.86916 13.0147 7.88844 12.9899C7.92745 12.9396 7.99875 12.867 8.11118 12.8104L9.00997 14.5971ZM8.97445 7.71265C8.65116 6.81817 8.31454 5.39517 8.23032 4.22596C8.18723 3.62768 8.21861 3.19643 8.28972 2.95432C8.32406 2.8374 8.34579 2.84214 8.30151 2.88654C8.23189 2.95635 8.12342 3 8.03399 3L8.03399 1C7.58604 1 7.18673 1.17208 6.88539 1.47424C6.60938 1.751 6.4585 2.09201 6.37077 2.39074C6.19772 2.97996 6.18709 3.69762 6.23549 4.36965C6.33428 5.74106 6.71472 7.34435 7.09353 8.39247L8.97445 7.71265ZM8.03399 3C8.22545 3 8.27035 3.0414 8.27392 3.04408C8.29497 3.05986 8.36258 3.1212 8.45916 3.33877C8.55812 3.5617 8.64903 3.85657 8.76817 4.27671C8.88174 4.67723 9.01592 5.17197 9.1933 5.70735L11.0918 5.07836C10.932 4.59589 10.8132 4.1576 10.6923 3.7311C10.5769 3.32424 10.4518 2.89812 10.2871 2.52731C10.1202 2.15112 9.87671 1.74595 9.47335 1.44365C9.05249 1.12824 8.5596 1 8.03399 1L8.03399 3ZM9.1933 5.70735C9.47602 6.56068 9.5166 7.60037 9.53543 8.55106C9.54404 8.98537 9.54856 9.4576 9.5918 9.80906C9.61236 9.9761 9.65232 10.2231 9.762 10.4529C9.87906 10.6982 10.1994 11.1429 10.817 11.1429L10.817 9.14286C11.3029 9.14286 11.5246 9.50266 11.567 9.59158C11.6021 9.66503 11.5915 9.68406 11.5768 9.56483C11.5496 9.34374 11.5449 9.01017 11.535 8.51144C11.5169 7.59606 11.4836 6.26075 11.0918 5.07836L9.1933 5.70735ZM10.817 11.1429C11.1034 11.1429 11.406 11.0766 11.6841 10.9022C11.9604 10.7289 12.1473 10.4898 12.2702 10.2476C12.4966 9.80093 12.5445 9.26467 12.5445 8.78571L10.5445 8.78571C10.5445 8.97181 10.5337 9.11108 10.5176 9.2118C10.5009 9.31542 10.4831 9.34964 10.4863 9.34321C10.4931 9.32989 10.5311 9.26451 10.6216 9.20777C10.7139 9.14988 10.794 9.14286 10.817 9.14286L10.817 11.1429ZM12.5445 8.78571C12.5445 8.67522 12.5656 8.65128 12.557 8.66653L10.8155 7.68309C10.617 8.0346 10.5445 8.41629 10.5445 8.78571L12.5445 8.78571ZM12.557 8.66653C12.5366 8.7027 12.5258 8.67126 12.6623 8.62327C12.8161 8.56922 13.0834 8.52276 13.5148 8.52276L13.5148 6.52276C12.5205 6.52276 11.3675 6.70565 10.8155 7.68309L12.557 8.66653ZM13.5148 8.52276C13.5162 8.52276 13.5008 8.52283 13.4741 8.51537C13.4466 8.5077 13.4163 8.4946 13.3873 8.47589C13.3279 8.43763 13.3114 8.40112 13.3206 8.41774C13.3566 8.48252 13.4041 8.64116 13.4462 8.96266C13.4757 9.18782 13.5146 9.64985 13.5794 9.94672C13.6142 10.1058 13.6817 10.3613 13.8418 10.5951C14.0347 10.8769 14.3806 11.1429 14.8637 11.1429L14.8637 9.14286C15.1782 9.14286 15.3973 9.32689 15.4921 9.46543C15.5541 9.55601 15.5523 9.6068 15.5334 9.52022C15.491 9.32582 15.4856 9.13282 15.4293 8.70295C15.3856 8.36943 15.3059 7.87305 15.069 7.44656C14.9418 7.21755 14.7524 6.97634 14.4707 6.79479C14.182 6.6087 13.854 6.52276 13.5148 6.52276V8.52276ZM14.8637 11.1429C14.9631 11.1429 15.2208 11.151 15.4286 11.114C15.5592 11.0908 15.7397 11.0415 15.9215 10.9225C16.1138 10.7965 16.2506 10.63 16.3417 10.4542C16.4929 10.1625 16.5157 9.83939 16.5261 9.64818C16.5385 9.42087 16.5382 9.12652 16.5382 8.78571L14.5382 8.78571C14.5382 9.1513 14.5378 9.3798 14.5291 9.5394C14.5249 9.61643 14.52 9.65028 14.5185 9.65846C14.5165 9.66921 14.5243 9.61434 14.566 9.53398C14.6149 9.43953 14.6991 9.33229 14.8255 9.24947C14.9414 9.17353 15.0428 9.15127 15.0786 9.14491C15.1096 9.1394 15.1168 9.14172 15.0672 9.14267C15.0152 9.14367 14.9655 9.14286 14.8637 9.14286V11.1429ZM16.5382 8.78571C16.5382 8.64374 16.5462 8.54347 16.5565 8.47467C16.5669 8.40564 16.5775 8.38299 16.575 8.38872C16.5708 8.39844 16.5532 8.43354 16.5134 8.47324C16.4733 8.51321 16.4339 8.53478 16.4131 8.54372C16.3957 8.55115 16.4435 8.52813 16.6672 8.5209C16.8975 8.51346 17.1258 8.52276 17.5125 8.52276L17.5125 6.52276C17.2246 6.52276 16.869 6.51333 16.6026 6.52194C16.3297 6.53076 15.9682 6.55858 15.6259 6.70516C15.2278 6.87562 14.9199 7.17668 14.7389 7.59599C14.5797 7.96477 14.5382 8.37992 14.5382 8.78571L16.5382 8.78571ZM17.5125 8.52276C17.5153 8.52276 17.5016 8.52301 17.4765 8.5161C17.4508 8.50898 17.422 8.49672 17.3942 8.47906C17.3373 8.44283 17.3217 8.40845 17.3316 8.42581C17.3691 8.49199 17.4181 8.65104 17.4639 8.97354C17.4964 9.20176 17.5404 9.66203 17.6128 9.96547C17.6515 10.1279 17.7257 10.3845 17.8946 10.6175C18.0974 10.897 18.4437 11.1429 18.9104 11.1429L18.9104 9.14286C19.2016 9.14286 19.4147 9.30681 19.5135 9.44309C19.5786 9.53272 19.578 9.58471 19.5582 9.50147C19.5134 9.31363 19.5047 9.11888 19.444 8.69207C19.3968 8.35955 19.3122 7.86358 19.0709 7.43849C18.9413 7.21021 18.75 6.97114 18.4678 6.79162C18.1789 6.60783 17.8515 6.52276 17.5125 6.52276V8.52276ZM18.9104 11.1429C19.1636 11.1429 19.4549 11.079 19.7146 10.8836C19.9689 10.6922 20.0979 10.4459 20.1635 10.254C20.2264 10.0697 20.2451 9.89515 20.2525 9.77619C20.2602 9.65447 20.2588 9.53371 20.258 9.4541C20.257 9.35995 20.2567 9.3091 20.2588 9.26705C20.2612 9.2227 20.2643 9.24458 20.2477 9.29763C20.2292 9.35626 20.1708 9.50177 20.013 9.62707C19.846 9.75975 19.6743 9.78571 19.5849 9.78571L19.5849 7.78571C19.3268 7.78571 19.0295 7.85409 18.7691 8.06098C18.5179 8.26051 18.3981 8.51205 18.3397 8.69791C18.283 8.87819 18.2675 9.0485 18.2615 9.1632C18.2555 9.28019 18.2573 9.39897 18.2581 9.47447C18.259 9.5645 18.2588 9.61339 18.2565 9.65071C18.254 9.69079 18.2513 9.6647 18.2708 9.60763C18.2929 9.54292 18.3563 9.40268 18.512 9.28551C18.6731 9.16427 18.8328 9.14286 18.9104 9.14286L18.9104 11.1429ZM19.5849 9.78571C19.7138 9.78571 19.7127 9.79972 19.6765 9.78375C19.6124 9.75546 19.6059 9.71849 19.6401 9.77934C19.7552 9.98451 19.9338 10.5985 19.9338 12.1786L21.9338 12.1786C21.9338 10.5798 21.7751 9.4974 21.3844 8.80085C21.1656 8.41083 20.8641 8.12167 20.4838 7.95391C20.1314 7.79846 19.7931 7.78571 19.5849 7.78571V9.78571ZM19.9338 12.1786C19.9338 12.994 19.9581 13.6164 19.9773 14.1025C19.997 14.605 20.0081 14.9099 19.9933 15.1557C19.9802 15.3727 19.9481 15.5074 19.8896 15.644C19.823 15.7997 19.7038 16.0006 19.4576 16.3309L21.0611 17.5262C21.3414 17.1502 21.5698 16.8014 21.7284 16.4307C21.8951 16.041 21.9658 15.6725 21.9897 15.276C22.0118 14.9082 21.994 14.4892 21.9757 14.0238C21.9567 13.542 21.9338 12.9525 21.9338 12.1786L19.9338 12.1786ZM19.4576 16.3309C18.931 17.0373 18.4251 17.7159 18.0509 18.2179C17.8639 18.4688 17.7097 18.6757 17.6023 18.8198C17.5486 18.8918 17.5065 18.9482 17.478 18.9865C17.4637 19.0057 17.4527 19.0204 17.4454 19.0302C17.4417 19.0352 17.4389 19.0389 17.437 19.0414C17.4361 19.0427 17.4354 19.0436 17.4349 19.0442C17.4347 19.0446 17.4345 19.0448 17.4344 19.045C17.4343 19.045 17.4343 19.0451 17.4343 19.0451C17.4342 19.0452 17.4342 19.0452 17.4342 19.0452C17.4342 19.0452 17.4342 19.0452 18.236 19.6429C19.0377 20.2405 19.0377 20.2405 19.0377 20.2405C19.0377 20.2405 19.0377 20.2405 19.0378 20.2405C19.0378 20.2404 19.0378 20.2404 19.0379 20.2403C19.038 20.2401 19.0382 20.2399 19.0384 20.2396C19.0389 20.2389 19.0396 20.238 19.0405 20.2367C19.0424 20.2342 19.0452 20.2305 19.0489 20.2256C19.0562 20.2157 19.0672 20.201 19.0815 20.1818C19.11 20.1435 19.1521 20.0871 19.2058 20.0151C19.3132 19.871 19.4674 19.6642 19.6544 19.4132C20.0286 18.9112 20.5345 18.2326 21.0611 17.5262L19.4576 16.3309ZM18.236 19.6429C17.236 19.6429 17.236 19.6426 17.236 19.6424C17.236 19.6423 17.236 19.642 17.236 19.6419C17.236 19.6416 17.236 19.6413 17.236 19.641C17.236 19.6405 17.236 19.64 17.236 19.6396C17.236 19.6388 17.236 19.6383 17.236 19.6382C17.236 19.6378 17.236 19.6385 17.2359 19.6403C17.2359 19.644 17.2357 19.6518 17.2353 19.6631C17.2344 19.686 17.2325 19.722 17.2286 19.7664C17.2203 19.8598 17.2047 19.9684 17.1793 20.0639C17.1503 20.1724 17.1279 20.1908 17.1497 20.1634C17.166 20.1431 17.2067 20.099 17.2789 20.0603C17.356 20.0189 17.4393 20 17.5125 20V22C18.0591 22 18.4626 21.7241 18.7117 21.4125C18.9371 21.1307 19.0503 20.8097 19.1118 20.579C19.1768 20.3352 19.2064 20.1045 19.2207 19.9434C19.2281 19.8606 19.2319 19.7905 19.2338 19.7392C19.2348 19.7135 19.2353 19.6921 19.2356 19.6759C19.2358 19.6677 19.2359 19.6609 19.2359 19.6553C19.2359 19.6526 19.2359 19.6502 19.2359 19.6481C19.236 19.647 19.236 19.6461 19.236 19.6452C19.236 19.6448 19.236 19.6444 19.236 19.644C19.236 19.6438 19.236 19.6435 19.236 19.6434C19.236 19.6431 19.236 19.6429 18.236 19.6429ZM17.5125 20C17.6667 20 17.7311 20.0779 17.6679 20.0244C17.5921 19.9603 17.5112 19.8658 17.3395 19.6673C17.1976 19.5033 16.982 19.255 16.715 19.0548C16.4308 18.8417 16.0371 18.6429 15.5382 18.6429L15.5382 20.6429C15.478 20.6429 15.4601 20.6136 15.5153 20.655C15.5877 20.7093 15.6752 20.8003 15.8267 20.9756C15.9485 21.1163 16.1513 21.3611 16.3764 21.5515C16.6141 21.7525 16.9965 22 17.5125 22L17.5125 20ZM15.5382 18.6429C14.5621 18.6429 13.9638 19.3772 13.7041 19.7645C13.5511 19.9925 13.4393 20.2136 13.3664 20.3738C13.3293 20.4553 13.3008 20.5245 13.2807 20.5756C13.2706 20.6012 13.2625 20.6225 13.2565 20.6387C13.2535 20.6469 13.251 20.6538 13.2491 20.6593C13.2481 20.6621 13.2472 20.6646 13.2464 20.6667C13.2461 20.6677 13.2457 20.6687 13.2454 20.6696C13.2453 20.67 13.2451 20.6704 13.245 20.6708C13.2449 20.671 13.2448 20.6713 13.2448 20.6714C13.2447 20.6717 13.2446 20.672 14.1893 21C15.1339 21.328 15.1338 21.3283 15.1337 21.3285C15.1337 21.3286 15.1336 21.3289 15.1336 21.329C15.1335 21.3294 15.1334 21.3297 15.1333 21.3299C15.1331 21.3305 15.1329 21.331 15.1328 21.3314C15.1325 21.3322 15.1323 21.3327 15.1322 21.3329C15.1321 21.3333 15.1323 21.3326 15.133 21.3308C15.1343 21.3272 15.1373 21.3193 15.1418 21.3078C15.1509 21.2847 15.166 21.2479 15.1868 21.2021C15.2297 21.1078 15.2906 20.9896 15.3651 20.8784C15.4428 20.7625 15.5125 20.6888 15.5618 20.6514C15.6044 20.6191 15.5914 20.6429 15.5382 20.6429L15.5382 18.6429ZM14.1893 20H10.1426V22H14.1893V20ZM19.2361 18.2857V12.8571H17.2361V18.2857H19.2361ZM18.2361 11.8571H16.8872V13.8571H18.2361V11.8571ZM15.8872 12.8571V18.2857H17.8872V12.8571H15.8872ZM16.8872 19.2857H18.2361V17.2857H16.8872V19.2857ZM13.1891 16.9286C13.1891 17.2929 13.3162 17.7695 13.469 18.1328C13.5494 18.3239 13.6661 18.5551 13.8301 18.7566C13.9652 18.9226 14.3093 19.2857 14.8636 19.2857V17.2857C15.0547 17.2857 15.1956 17.3524 15.272 17.4016C15.3441 17.448 15.3781 17.4903 15.3812 17.4941C15.3849 17.4986 15.3555 17.4594 15.3125 17.3572C15.2734 17.2642 15.2391 17.1575 15.2156 17.0604C15.2041 17.0128 15.1966 16.9736 15.1924 16.9453C15.1877 16.9136 15.1891 16.9098 15.1891 16.9286H13.1891ZM14.8636 19.2857C15.4102 19.2857 15.7545 18.9363 15.8982 18.7617C16.0658 18.5582 16.1832 18.3246 16.2634 18.1323C16.4171 17.764 16.538 17.2899 16.538 16.9286H14.538C14.538 16.9135 14.5391 16.92 14.5345 16.9523C14.5303 16.9816 14.5229 17.0213 14.5117 17.0688C14.4888 17.166 14.4555 17.2714 14.4176 17.3623C14.3757 17.4626 14.3478 17.4982 14.354 17.4907C14.3587 17.4851 14.394 17.4422 14.467 17.3963C14.5449 17.3473 14.6817 17.2857 14.8636 17.2857V19.2857ZM16.538 16.9286V14.2143H14.538V16.9286H16.538ZM16.538 14.2143C16.538 13.85 16.411 13.3734 16.2582 13.0101C16.1777 12.8189 16.0611 12.5877 15.8971 12.3862C15.762 12.2203 15.4179 11.8571 14.8636 11.8571V13.8571C14.6725 13.8571 14.5315 13.7904 14.4552 13.7413C14.3831 13.6949 14.349 13.6526 14.3459 13.6488C14.3423 13.6443 14.3717 13.6834 14.4147 13.7857C14.4538 13.8786 14.4881 13.9854 14.5116 14.0825C14.5231 14.1301 14.5306 14.1692 14.5348 14.1976C14.5395 14.2293 14.538 14.2331 14.538 14.2143H16.538ZM14.8636 11.8571C14.317 11.8571 13.9726 12.2066 13.829 12.3811C13.6614 12.5847 13.544 12.8183 13.4638 13.0105C13.3101 13.3789 13.1891 13.853 13.1891 14.2143H15.1891C15.1891 14.2293 15.1881 14.2229 15.1927 14.1906C15.1969 14.1612 15.2042 14.1216 15.2155 14.074C15.2384 13.9769 15.2717 13.8715 15.3096 13.7806C15.3514 13.6803 15.3793 13.6446 15.3731 13.6521C15.3685 13.6578 15.3332 13.7006 15.2601 13.7466C15.1822 13.7956 15.0455 13.8571 14.8636 13.8571V11.8571ZM13.1891 14.2143V16.9286H15.1891V14.2143H13.1891ZM10.4914 16.9286C10.4914 17.2929 10.6184 17.7695 10.7713 18.1328C10.8517 18.3239 10.9684 18.5551 11.1324 18.7566C11.2674 18.9226 11.6116 19.2857 12.1659 19.2857V17.2857C12.357 17.2857 12.4979 17.3524 12.5742 17.4016C12.6464 17.448 12.6804 17.4903 12.6835 17.4941C12.6872 17.4986 12.6578 17.4594 12.6148 17.3572C12.5757 17.2642 12.5414 17.1575 12.5179 17.0604C12.5063 17.0128 12.4989 16.9736 12.4947 16.9453C12.49 16.9136 12.4914 16.9098 12.4914 16.9286H10.4914ZM12.1659 19.2857C12.7124 19.2857 13.0568 18.9363 13.2005 18.7617C13.368 18.5582 13.4855 18.3246 13.5657 18.1323C13.7194 17.764 13.8403 17.2899 13.8403 16.9286H11.8403C11.8403 16.9135 11.8414 16.92 11.8367 16.9523C11.8325 16.9816 11.8252 17.0213 11.814 17.0688C11.7911 17.166 11.7578 17.2714 11.7199 17.3623C11.678 17.4626 11.6501 17.4982 11.6563 17.4907C11.661 17.4851 11.6963 17.4422 11.7693 17.3963C11.8472 17.3473 11.984 17.2857 12.1659 17.2857V19.2857ZM13.8403 16.9286V14.2143H11.8403V16.9286H13.8403ZM13.8403 14.2143C13.8403 13.85 13.7133 13.3734 13.5604 13.0101C13.48 12.8189 13.3634 12.5877 13.1994 12.3862C13.0643 12.2203 12.7202 11.8571 12.1659 11.8571V13.8571C11.9748 13.8571 11.8338 13.7904 11.7575 13.7413C11.6854 13.6949 11.6513 13.6526 11.6482 13.6488C11.6446 13.6443 11.6739 13.6834 11.717 13.7857C11.7561 13.8786 11.7904 13.9854 11.8139 14.0825C11.8254 14.1301 11.8328 14.1692 11.8371 14.1976C11.8418 14.2293 11.8403 14.2331 11.8403 14.2143H13.8403ZM12.1659 11.8571C11.6193 11.8571 11.2749 12.2066 11.1313 12.3811C10.9637 12.5847 10.8463 12.8183 10.7661 13.0105C10.6124 13.3789 10.4914 13.853 10.4914 14.2143H12.4914C12.4914 14.2293 12.4904 14.2229 12.495 14.1906C12.4992 14.1612 12.5065 14.1216 12.5177 14.074C12.5406 13.9769 12.5739 13.8715 12.6119 13.7806C12.6537 13.6803 12.6816 13.6446 12.6754 13.6521C12.6708 13.6578 12.6355 13.7006 12.5624 13.7466C12.4845 13.7956 12.3478 13.8571 12.1659 13.8571V11.8571ZM10.4914 14.2143V16.9286H12.4914V14.2143H10.4914Z" fill="black" mask="url(#path-1-outside-1_0_401)"/>
</g>
<defs>
<filter id="filter0_d_0_401" x="0.357178" y="0" width="23.6428" height="25" filterUnits="userSpaceOnUse" color-interpolation-filters="sRGB">
<feFlood flood-opacity="0" result="BackgroundImageFix"/>
<feColorMatrix in="SourceAlpha" type="matrix" values="0 0 0 0 0 0 0 0 0 0 0 0 0 0 0 0 0 0 127 0" result="hardAlpha"/>
<feOffset dy="1"/>
<feGaussianBlur stdDeviation="1"/>
<feColorMatrix type="matrix" values="0 0 0 0 0 0 0 0 0 0 0 0 0 0 0 0 0 0 1 0"/>
<feBlend mode="normal" in2="BackgroundImageFix" result="effect1_dropShadow_0_401"/>
<feBlend mode="normal" in="SourceGraphic" in2="effect1_dropShadow_0_401" result="shape"/>
</filter>
</defs>
</svg>
