<svg width="18" height="17" viewBox="0 0 18 17" fill="none" xmlns="http://www.w3.org/2000/svg">
<path fill-rule="evenodd" clip-rule="evenodd" d="M9 0C4.0275 0 0 3.89996 0 8.715C0 12.5714 2.57625 15.8286 6.15375 16.9834C6.60375 17.0596 6.7725 16.7982 6.7725 16.5694C6.7725 16.3624 6.76125 15.6761 6.76125 14.9462C4.5 15.3493 3.915 14.4124 3.735 13.9222C3.63375 13.6717 3.195 12.8982 2.8125 12.6912C2.4975 12.5278 2.0475 12.1247 2.80125 12.1138C3.51 12.103 4.01625 12.7457 4.185 13.0071C4.995 14.3253 6.28875 13.9549 6.80625 13.7261C6.885 13.1596 7.12125 12.7784 7.38 12.5605C5.3775 12.3426 3.285 11.5909 3.285 8.25746C3.285 7.3097 3.63375 6.52535 4.2075 5.9153C4.1175 5.69743 3.8025 4.80414 4.2975 3.60583C4.2975 3.60583 5.05125 3.37706 6.7725 4.49912C7.4925 4.30303 8.2575 4.20499 9.0225 4.20499C9.7875 4.20499 10.5525 4.30303 11.2725 4.49912C12.9937 3.36617 13.7475 3.60583 13.7475 3.60583C14.2425 4.80414 13.9275 5.69743 13.8375 5.9153C14.4113 6.52535 14.76 7.29881 14.76 8.25746C14.76 11.6018 12.6562 12.3426 10.6537 12.5605C10.98 12.8328 11.2613 13.3557 11.2613 14.1728C11.2613 15.3384 11.25 16.2753 11.25 16.5694C11.25 16.7982 11.4187 17.0705 11.8687 16.9834C13.6554 16.3992 15.2079 15.2873 16.3077 13.8041C17.4076 12.3209 17.9995 10.541 18 8.715C18 3.89996 13.9725 0 9 0Z" fill="black"/>
</svg>
