<svg width="160" height="161" viewBox="0 0 160 161" fill="none" xmlns="http://www.w3.org/2000/svg">
<path d="M73.8844 21.2065L73.8045 20.2724L77.6089 19.9473L77.6887 20.8814L73.8844 21.2065Z" fill="white"/>
<path d="M56.8153 21.2336L57.8184 20.7631L58.6229 30.0253L57.6352 30.4885L51.0281 23.9478L52.0313 23.4773L57.5119 29.0213L57.5737 28.9924L56.8153 21.2336ZM57.8925 24.4938L53.8492 26.3901L53.4511 25.5413L57.4944 23.645L57.8925 24.4938Z" fill="white"/>
<path d="M46.3027 31.5902L43.8874 28.4805L44.6817 27.8636L48.6967 33.0329L47.9294 33.6289L47.302 32.8212L47.2347 32.8735C47.3175 33.2301 47.2973 33.5839 47.1742 33.9349C47.0529 34.2881 46.797 34.6163 46.4066 34.9196C46.0566 35.1914 45.6946 35.3575 45.3206 35.4178C44.9483 35.4803 44.5768 35.4235 44.2062 35.2474C43.8373 35.0734 43.482 34.7666 43.1405 34.3269L40.5892 31.0422L41.3835 30.4253L43.8929 33.6561C44.2083 34.0622 44.5595 34.2967 44.9464 34.3595C45.3351 34.4245 45.7134 34.3141 46.0813 34.0283C46.3348 33.8314 46.5188 33.6004 46.6331 33.3354C46.7451 33.0721 46.7764 32.7906 46.7271 32.4908C46.6777 32.191 46.5362 31.8908 46.3027 31.5902Z" fill="white"/>
<path d="M37.7573 43.0889L37.1173 42.526L39.3577 39.9791L39.9976 40.542L37.7573 43.0889ZM40.5221 42.3201L39.8579 43.0752L35.1736 38.9547C34.9603 38.767 34.7731 38.6572 34.6121 38.6253C34.4513 38.5973 34.3096 38.6165 34.187 38.6827C34.0647 38.7529 33.9547 38.8435 33.8572 38.9544C33.784 39.0376 33.7282 39.1096 33.6898 39.1705C33.6536 39.2332 33.6246 39.2833 33.6028 39.321L32.7894 38.8779C32.8153 38.8098 32.8589 38.7214 32.9204 38.6128C32.9798 38.5023 33.0714 38.3767 33.1952 38.2359C33.3828 38.0226 33.6126 37.8539 33.8844 37.7298C34.1544 37.6079 34.4424 37.5622 34.7483 37.593C35.0523 37.6258 35.3473 37.768 35.6331 38.0194L40.5221 42.3201Z" fill="white"/>
<path d="M31.2217 47.5548L27.8293 45.5558L28.3399 44.6894L35.8589 49.12L35.3483 49.9865L32.5874 48.3596L32.5442 48.433C32.7575 48.7368 32.872 49.0714 32.8876 49.4367C32.9041 49.8059 32.7819 50.212 32.5208 50.655C32.2944 51.0392 32.019 51.3303 31.6946 51.5283C31.3727 51.7277 31.007 51.8139 30.5975 51.7869C30.189 51.7639 29.7425 51.6095 29.2578 51.324L25.6746 49.2125L26.1852 48.346L29.7097 50.4229C30.1576 50.6869 30.5724 50.7747 30.9542 50.6864C31.337 50.602 31.6488 50.3554 31.8896 49.9467C32.0569 49.6628 32.147 49.3729 32.1597 49.077C32.171 48.7836 32.0999 48.5043 31.9463 48.239C31.7912 47.9761 31.5497 47.7481 31.2217 47.5548Z" fill="white"/>
<path d="M21.2886 59.0092C21.4738 58.448 21.7699 57.9998 22.1768 57.6644C22.5828 57.3318 23.0651 57.126 23.6236 57.0471C24.1813 56.971 24.7812 57.0389 25.4232 57.2508C26.0707 57.4646 26.5971 57.7685 27.0025 58.1626C27.407 58.5594 27.6733 59.0124 27.8015 59.5214C27.9287 60.0331 27.8997 60.5695 27.7145 61.1306C27.5292 61.6917 27.2336 62.1386 26.8276 62.4713C26.4207 62.8067 25.9371 63.012 25.3767 63.0873C24.8154 63.1652 24.2111 63.0974 23.5636 62.8836C22.9216 62.6716 22.3996 62.3677 21.9978 61.9718C21.5951 61.5785 21.3301 61.1261 21.2029 60.6144C21.0748 60.1053 21.1033 59.5703 21.2886 59.0092ZM22.1464 59.2924C22.0057 59.7186 21.9992 60.1054 22.1269 60.4527C22.2545 60.8 22.4746 61.0985 22.787 61.3483C23.0995 61.598 23.4635 61.7915 23.8789 61.9286C24.2943 62.0658 24.7033 62.1275 25.1057 62.1138C25.5082 62.1 25.8654 61.9921 26.1775 61.79C26.4895 61.5878 26.7159 61.2736 26.8566 60.8474C26.9973 60.4212 27.0025 60.0339 26.8721 59.6858C26.7418 59.3376 26.519 59.0381 26.2039 58.7875C25.8887 58.5369 25.5234 58.343 25.108 58.2058C24.6925 58.0687 24.2849 58.0074 23.8852 58.022C23.4854 58.0366 23.1309 58.1455 22.8215 58.3485C22.5122 58.5515 22.2872 58.8661 22.1464 59.2924Z" fill="white"/>
<path d="M22.6215 70.7997L18.7058 70.386L18.8115 69.3859L25.3207 70.0736L25.2187 71.0398L24.2016 70.9324L24.1926 71.0171C24.5071 71.2046 24.7482 71.4643 24.9159 71.7963C25.0865 72.1285 25.1458 72.5405 25.0939 73.032C25.0473 73.4728 24.9162 73.8489 24.7004 74.1603C24.4875 74.472 24.1891 74.7005 23.8053 74.8456C23.4243 74.991 22.9569 75.0345 22.4031 74.976L18.2671 74.539L18.3727 73.5389L22.441 73.9687C22.9524 74.0228 23.3647 73.9321 23.6781 73.6966C23.9944 73.4615 24.177 73.1123 24.2259 72.649C24.2596 72.3297 24.2206 72.0371 24.1087 71.771C23.9965 71.5077 23.8153 71.2901 23.5649 71.1179C23.3146 70.9458 23.0001 70.8397 22.6215 70.7997Z" fill="white"/>
<path d="M15.8198 83.5573C15.8028 83.3877 15.8017 83.235 15.8166 83.0993C15.8287 82.9639 15.8449 82.8695 15.8653 82.816L16.7727 82.9818C16.735 83.2312 16.7339 83.4483 16.7697 83.6331C16.8054 83.818 16.9054 83.975 17.0697 84.1041C17.2314 84.2363 17.4838 84.3466 17.8267 84.4349L18.3542 84.5703L24.6588 81.5042L24.7679 82.5897L19.7588 84.9089L19.7656 84.9767L25.136 86.253L25.245 87.3385L17.5049 85.3238C17.156 85.2332 16.8621 85.1071 16.6231 84.9455C16.3814 84.7842 16.1946 84.5874 16.0627 84.3551C15.9312 84.1257 15.8502 83.8597 15.8198 83.5573Z" fill="white"/>
<path d="M23.1311 103.489L29.084 100.768L29.488 101.651L28.5888 102.062L28.6172 102.124C28.9613 102.098 29.2901 102.185 29.6035 102.386C29.9168 102.586 30.155 102.864 30.318 103.221C30.3487 103.288 30.3858 103.373 30.4293 103.475C30.4728 103.577 30.5037 103.655 30.5222 103.709L29.5921 104.134C29.5856 104.099 29.5648 104.023 29.5295 103.905C29.498 103.788 29.4545 103.669 29.3989 103.547C29.2667 103.258 29.0878 103.027 28.8625 102.856C28.6408 102.685 28.394 102.582 28.1219 102.548C27.8535 102.514 27.585 102.559 27.3163 102.682L23.5492 104.404L23.1311 103.489Z" fill="white"/>
<path d="M32.4511 114.433L35.6237 112.218L36.1994 113.043L30.8327 116.79L30.2569 115.965L31.1654 115.331L31.1263 115.275C30.766 115.34 30.3976 115.306 30.0212 115.174C29.6471 115.04 29.3186 114.77 29.0356 114.365C28.8014 114.03 28.6666 113.68 28.6312 113.317C28.5981 112.952 28.6786 112.591 28.8727 112.234C29.0691 111.875 29.3955 111.536 29.8521 111.217L33.2622 108.836L33.8379 109.661L30.4837 112.003C30.0924 112.276 29.8567 112.603 29.7766 112.985C29.6982 113.369 29.7785 113.732 30.0176 114.074C30.1607 114.279 30.3587 114.451 30.6115 114.59C30.866 114.731 31.1519 114.798 31.4694 114.791C31.7885 114.787 32.1157 114.668 32.4511 114.433Z" fill="white"/>
<path d="M35.5863 122.357L41.5725 116.006L42.3043 116.696L40.0946 119.04L40.1566 119.099C40.2883 119.067 40.4621 119.032 40.678 118.993C40.8979 118.954 41.1456 118.969 41.4209 119.037C41.7002 119.106 41.995 119.286 42.3051 119.578C42.7061 119.956 42.9651 120.39 43.082 120.879C43.199 121.367 43.1698 121.877 42.9945 122.407C42.8193 122.936 42.4958 123.451 42.0243 123.951C41.5488 124.456 41.0509 124.812 40.5305 125.021C40.012 125.227 39.5054 125.288 39.0105 125.204C38.5176 125.118 38.0727 124.888 37.6758 124.514C37.3698 124.226 37.1726 123.944 37.0841 123.669C36.9976 123.393 36.9661 123.142 36.9896 122.918C37.0151 122.693 37.0419 122.511 37.07 122.373L36.9831 122.292L36.2933 123.023L35.5863 122.357ZM38.5505 120.654C38.2115 121.013 37.9651 121.38 37.8113 121.755C37.6596 122.127 37.6119 122.486 37.6683 122.832C37.7267 123.176 37.9027 123.486 38.1962 123.763C38.5022 124.051 38.8335 124.212 39.1902 124.243C39.5508 124.275 39.9124 124.202 40.275 124.024C40.6415 123.847 40.9846 123.588 41.3041 123.249C41.6198 122.914 41.8526 122.564 42.0026 122.198C42.1566 121.831 42.2042 121.472 42.1456 121.12C42.091 120.768 41.9087 120.446 41.5986 120.154C41.3009 119.873 40.9796 119.713 40.6348 119.673C40.2919 119.631 39.9421 119.695 39.5854 119.866C39.2307 120.036 38.8857 120.298 38.5505 120.654Z" fill="white"/>
<path d="M44.9513 133.227C44.806 133.138 44.6839 133.046 44.585 132.952C44.4846 132.861 44.4193 132.791 44.3891 132.742L45.0706 132.12C45.2461 132.301 45.4183 132.434 45.587 132.517C45.7557 132.601 45.9412 132.616 46.1434 132.564C46.3466 132.515 46.5872 132.381 46.8652 132.162L47.2925 131.824L48.6712 124.95L49.601 125.521L48.4125 130.911L48.4706 130.947L52.7389 127.447L53.6687 128.018L47.3776 132.956C47.0942 133.179 46.8158 133.336 46.5426 133.429C46.2678 133.523 45.998 133.553 45.7333 133.517C45.4711 133.483 45.2104 133.386 44.9513 133.227Z" fill="white"/>
<path d="M69.6628 140.457L69.4641 141.373L64.1335 140.216L64.3322 139.3L69.6628 140.457Z" fill="white"/>
<path d="M87.12 141.059L84.183 134.879L85.2282 134.723L87.366 139.471L87.4334 139.461L88.0775 134.299L89.1396 134.14L91.2411 138.877L91.3086 138.867L91.972 133.719L93.0173 133.563L92.0092 140.331L91.0314 140.476L88.8742 135.714L88.7731 135.729L88.0978 140.913L87.12 141.059Z" fill="white"/>
<path d="M103.236 137.211C102.648 137.439 102.09 137.506 101.563 137.412C101.038 137.314 100.569 137.075 100.157 136.695C99.7461 136.312 99.4197 135.808 99.1774 135.183C98.9351 134.558 98.8355 133.962 98.8785 133.397C98.9232 132.829 99.0989 132.331 99.4058 131.904C99.7144 131.474 100.144 131.152 100.695 130.938C101.013 130.815 101.347 130.747 101.698 130.732C102.049 130.718 102.398 130.781 102.745 130.921C103.091 131.058 103.414 131.292 103.716 131.623C104.018 131.954 104.279 132.404 104.5 132.974L104.654 133.371L99.9496 135.194L99.6355 134.384L103.386 132.93C103.253 132.586 103.065 132.305 102.823 132.088C102.583 131.87 102.307 131.732 101.995 131.673C101.685 131.614 101.361 131.649 101.022 131.781C100.648 131.926 100.361 132.143 100.16 132.435C99.9605 132.722 99.8449 133.041 99.8132 133.392C99.7814 133.742 99.8307 134.086 99.9611 134.422L100.171 134.962C100.349 135.423 100.58 135.783 100.863 136.042C101.148 136.297 101.466 136.453 101.817 136.509C102.166 136.562 102.531 136.516 102.909 136.369C103.156 136.273 103.365 136.153 103.537 136.007C103.71 135.857 103.843 135.684 103.934 135.487C104.024 135.288 104.068 135.067 104.066 134.824L105.07 134.727C105.094 135.071 105.038 135.404 104.903 135.724C104.768 136.042 104.559 136.33 104.278 136.588C103.997 136.843 103.649 137.051 103.236 137.211Z" fill="white"/>
<path d="M111.948 132.927L107.201 125.603L108.045 125.056L109.798 127.76L109.869 127.713C109.869 127.578 109.876 127.4 109.89 127.182C109.905 126.959 109.978 126.722 110.11 126.471C110.242 126.215 110.487 125.972 110.845 125.74C111.307 125.44 111.79 125.292 112.293 125.294C112.795 125.297 113.283 125.446 113.756 125.742C114.229 126.038 114.652 126.475 115.026 127.052C115.403 127.633 115.631 128.202 115.71 128.757C115.787 129.309 115.726 129.816 115.527 130.277C115.327 130.735 114.998 131.113 114.54 131.409C114.187 131.638 113.867 131.763 113.579 131.783C113.29 131.802 113.039 131.773 112.827 131.697C112.614 131.618 112.444 131.549 112.317 131.489L112.217 131.554L112.764 132.398L111.948 132.927ZM110.998 129.643C111.267 130.057 111.565 130.384 111.892 130.622C112.217 130.858 112.555 130.99 112.904 131.017C113.252 131.042 113.596 130.945 113.934 130.725C114.287 130.497 114.521 130.213 114.637 129.874C114.753 129.531 114.768 129.162 114.682 128.768C114.596 128.37 114.427 127.975 114.173 127.584C113.923 127.198 113.638 126.889 113.318 126.656C112.998 126.419 112.661 126.288 112.305 126.261C111.95 126.231 111.594 126.331 111.236 126.563C110.893 126.786 110.661 127.06 110.54 127.385C110.418 127.708 110.397 128.063 110.479 128.45C110.559 128.835 110.732 129.233 110.998 129.643Z" fill="white"/>
<path d="M130.482 116.518C130.159 116.957 129.762 117.264 129.293 117.437C128.821 117.608 128.312 117.639 127.765 117.53C127.215 117.418 126.662 117.157 126.103 116.746C125.549 116.339 125.139 115.891 124.871 115.401C124.603 114.911 124.483 114.416 124.51 113.914C124.537 113.412 124.714 112.939 125.041 112.495C125.293 112.151 125.55 111.922 125.811 111.807C126.071 111.689 126.312 111.629 126.534 111.63C126.755 111.627 126.933 111.629 127.068 111.637L127.119 111.569L124.523 109.66L125.119 108.85L132.15 114.021L131.574 114.803L130.764 114.207L130.693 114.303C130.745 114.434 130.805 114.608 130.87 114.825C130.934 115.041 130.948 115.293 130.912 115.581C130.874 115.867 130.731 116.179 130.482 116.518ZM129.835 115.873C130.074 115.548 130.191 115.211 130.187 114.862C130.18 114.512 130.069 114.167 129.853 113.828C129.634 113.487 129.326 113.171 128.927 112.878C128.534 112.588 128.147 112.392 127.768 112.289C127.386 112.185 127.031 112.184 126.701 112.287C126.369 112.389 126.082 112.604 125.839 112.934C125.587 113.277 125.464 113.628 125.472 113.987C125.48 114.341 125.591 114.686 125.807 115.021C126.022 115.352 126.315 115.653 126.685 115.926C127.061 116.202 127.444 116.396 127.835 116.507C128.225 116.614 128.594 116.621 128.941 116.527C129.288 116.43 129.586 116.212 129.835 115.873Z" fill="white"/>
<path d="M137.405 104.832C137.143 105.406 136.79 105.843 136.347 106.143C135.902 106.44 135.399 106.596 134.839 106.611C134.278 106.623 133.692 106.49 133.082 106.211C132.473 105.932 131.986 105.576 131.622 105.141C131.258 104.702 131.036 104.223 130.958 103.703C130.879 103.18 130.962 102.649 131.208 102.112C131.35 101.802 131.541 101.519 131.783 101.264C132.024 101.009 132.318 100.811 132.664 100.669C133.007 100.526 133.403 100.468 133.85 100.494C134.297 100.521 134.798 100.661 135.354 100.915L135.741 101.092L133.644 105.681L132.853 105.319L134.525 101.661C134.19 101.507 133.859 101.437 133.534 101.451C133.21 101.462 132.916 101.556 132.652 101.732C132.388 101.905 132.181 102.157 132.03 102.488C131.863 102.852 131.809 103.208 131.869 103.557C131.926 103.902 132.066 104.211 132.288 104.485C132.51 104.758 132.785 104.969 133.113 105.119L133.64 105.36C134.09 105.566 134.506 105.663 134.89 105.651C135.272 105.635 135.608 105.524 135.898 105.32C136.186 105.114 136.414 104.826 136.583 104.457C136.693 104.217 136.759 103.984 136.78 103.76C136.8 103.531 136.774 103.315 136.702 103.11C136.628 102.904 136.505 102.715 136.333 102.543L136.985 101.773C137.243 102.003 137.435 102.28 137.562 102.604C137.686 102.926 137.738 103.277 137.717 103.658C137.693 104.038 137.589 104.429 137.405 104.832Z" fill="white"/>
<path d="M135.458 89.1117L141.273 92.9699L141.038 93.9653L134.112 94.8188L134.362 93.757L139.854 93.1956L139.869 93.1293L135.208 90.1735L135.458 89.1117Z" fill="white"/>
<path d="M142.962 80.9854C142.941 81.6157 142.783 82.1546 142.489 82.6022C142.192 83.0468 141.788 83.3839 141.277 83.6136C140.763 83.8404 140.171 83.9423 139.501 83.9192C138.831 83.8961 138.245 83.7537 137.742 83.492C137.237 83.2273 136.848 82.8699 136.577 82.42C136.302 81.9671 136.175 81.4454 136.196 80.8548C136.207 80.5141 136.276 80.1796 136.401 79.8513C136.526 79.523 136.721 79.227 136.986 78.9633C137.248 78.6994 137.59 78.4937 138.013 78.3462C138.436 78.1988 138.953 78.1356 139.563 78.1566L139.989 78.1712L139.816 83.2137L138.947 83.1838L139.085 79.1634C138.716 79.1507 138.384 79.2132 138.09 79.3509C137.795 79.4857 137.559 79.6851 137.382 79.9491C137.206 80.2102 137.111 80.5225 137.099 80.8859C137.085 81.2862 137.172 81.636 137.361 81.9353C137.547 82.2317 137.795 82.4633 138.105 82.6303C138.414 82.7973 138.749 82.8871 139.11 82.8995L139.689 82.9194C140.183 82.9364 140.605 82.8657 140.954 82.7071C141.301 82.5457 141.569 82.3147 141.759 82.0142C141.945 81.7136 142.045 81.3603 142.059 80.9543C142.069 80.6903 142.04 80.4505 141.973 80.235C141.904 80.0166 141.797 79.8267 141.652 79.6654C141.504 79.504 141.318 79.3767 141.094 79.2837L141.4 78.3221C141.725 78.4357 142.009 78.6174 142.251 78.8673C142.489 79.1172 142.672 79.4219 142.799 79.7816C142.923 80.1412 142.978 80.5425 142.962 80.9854Z" fill="white"/>
<path d="M133.623 71.6301L142.277 70.4996L142.407 71.4968L133.753 72.6273L133.623 71.6301Z" fill="white"/>
<path d="M140.282 60.7875C140.458 61.3516 140.478 61.8884 140.343 62.398C140.206 62.9048 139.934 63.3529 139.526 63.7421C139.117 64.1287 138.589 64.4227 137.944 64.6241C137.293 64.8272 136.688 64.8865 136.129 64.802C135.569 64.7148 135.089 64.5016 134.688 64.1623C134.287 63.8202 133.998 63.3672 133.822 62.8031C133.646 62.239 133.627 61.7036 133.763 61.1967C133.899 60.6872 134.172 60.2387 134.584 59.8513C134.995 59.4612 135.526 59.1646 136.177 58.9615C136.823 58.7601 137.424 58.7034 137.981 58.7915C138.537 58.8768 139.016 59.0904 139.418 59.4324C139.818 59.7717 140.106 60.2234 140.282 60.7875ZM139.42 61.0566C139.286 60.6281 139.066 60.3098 138.76 60.1018C138.454 59.8937 138.102 59.779 137.702 59.7578C137.303 59.7367 136.894 59.7912 136.477 59.9215C136.059 60.0518 135.691 60.2397 135.371 60.4851C135.052 60.7306 134.824 61.0263 134.688 61.3723C134.552 61.7183 134.551 62.1055 134.685 62.534C134.818 62.9625 135.04 63.2804 135.348 63.4876C135.657 63.6949 136.012 63.8086 136.415 63.829C136.817 63.8493 137.227 63.7943 137.644 63.664C138.062 63.5337 138.429 63.3463 138.746 63.1017C139.062 62.8571 139.287 62.5622 139.42 62.2171C139.554 61.8719 139.554 61.4851 139.42 61.0566Z" fill="white"/>
<path d="M138.391 49.6969L130.563 54.138L130.084 53.2929L130.988 52.7798L130.929 52.676C130.794 52.6679 130.617 52.6504 130.4 52.6237C130.178 52.5959 129.946 52.5088 129.703 52.3625C129.456 52.2152 129.227 51.9562 129.017 51.5855C128.745 51.1062 128.625 50.6157 128.657 50.114C128.689 49.6123 128.867 49.1341 129.191 48.6795C129.514 48.2249 129.975 47.828 130.573 47.4887C131.176 47.1467 131.757 46.9527 132.315 46.9069C132.871 46.8624 133.374 46.9531 133.822 47.179C134.268 47.4062 134.625 47.7571 134.894 48.2315C135.102 48.5972 135.207 48.9243 135.211 49.2129C135.212 49.5029 135.169 49.7514 135.08 49.9583C134.989 50.1666 134.91 50.3324 134.843 50.4555L134.885 50.5296L137.895 48.8222L138.391 49.6969ZM132.922 51.6631C133.352 51.4192 133.695 51.141 133.952 50.8286C134.207 50.5175 134.358 50.1883 134.406 49.841C134.452 49.4951 134.375 49.1467 134.176 48.7959C133.968 48.4302 133.699 48.1797 133.367 48.0444C133.032 47.9081 132.665 47.8713 132.266 47.9342C131.863 47.9961 131.46 48.1419 131.054 48.3718C130.654 48.5989 130.328 48.8654 130.077 49.1712C129.822 49.4759 129.671 49.8051 129.623 50.1587C129.572 50.5113 129.651 50.8729 129.862 51.2435C130.063 51.5993 130.323 51.8472 130.641 51.987C130.956 52.1282 131.31 52.1694 131.701 52.1108C132.09 52.0535 132.497 51.9043 132.922 51.6631Z" fill="white"/>
<path d="M130.863 38.0904L124.155 44.09L123.507 43.3658L124.282 42.6726L124.202 42.5837C124.068 42.6044 123.892 42.6247 123.674 42.6448C123.451 42.6645 123.206 42.6287 122.937 42.5373C122.665 42.4456 122.387 42.241 122.103 41.9233C121.735 41.5125 121.514 41.0586 121.439 40.5615C121.364 40.0644 121.437 39.5594 121.656 39.0465C121.876 38.5336 122.242 38.0481 122.755 37.5898C123.271 37.1277 123.798 36.815 124.334 36.6518C124.868 36.4904 125.378 36.4726 125.864 36.5983C126.348 36.7259 126.772 36.993 127.135 37.3995C127.416 37.7129 127.588 38.0103 127.653 38.2915C127.716 38.5747 127.726 38.8268 127.683 39.0477C127.639 39.2706 127.596 39.4493 127.557 39.5839L127.613 39.6474L130.193 37.3407L130.863 38.0904ZM125.935 41.1714C126.303 40.8419 126.58 40.4972 126.765 40.1373C126.948 39.7793 127.026 39.4255 127 39.076C126.971 38.7283 126.822 38.4041 126.553 38.1034C126.272 37.79 125.956 37.6024 125.603 37.5404C125.247 37.4783 124.88 37.5202 124.504 37.6662C124.124 37.812 123.76 38.0402 123.412 38.3508C123.069 38.6575 122.808 38.987 122.627 39.3391C122.442 39.6909 122.364 40.0447 122.393 40.4004C122.417 40.7558 122.571 41.0924 122.855 41.41C123.128 41.715 123.435 41.9021 123.775 41.9713C124.113 42.0425 124.467 42.0079 124.837 41.8676C125.205 41.7292 125.571 41.4971 125.935 41.1714Z" fill="white"/>
<path d="M117.474 28.6173C117.981 28.9918 118.336 29.4268 118.539 29.9224C118.738 30.4186 118.787 30.9424 118.687 31.4937C118.584 32.0457 118.333 32.5914 117.935 33.1309C117.537 33.6704 117.088 34.0733 116.587 34.3397C116.083 34.6067 115.569 34.7249 115.044 34.6943C114.515 34.6643 114.013 34.4739 113.538 34.1231C113.264 33.9206 113.026 33.675 112.826 33.3862C112.626 33.0975 112.493 32.7692 112.425 32.4016C112.356 32.0362 112.38 31.6374 112.498 31.2052C112.615 30.773 112.855 30.3112 113.218 29.8197L113.471 29.4769L117.531 32.4726L117.015 33.1721L113.778 30.7836C113.559 31.0808 113.422 31.3898 113.369 31.7107C113.314 32.0299 113.345 32.337 113.462 32.6321C113.578 32.9256 113.782 33.1802 114.074 33.3961C114.397 33.634 114.735 33.7598 115.088 33.7735C115.438 33.7878 115.769 33.7145 116.082 33.5535C116.395 33.3926 116.658 33.167 116.873 32.8766L117.217 32.4103C117.51 32.0126 117.69 31.6248 117.757 31.247C117.82 30.8698 117.782 30.5181 117.641 30.1919C117.499 29.868 117.264 29.5854 116.937 29.3442C116.725 29.1873 116.511 29.0754 116.295 29.0083C116.076 28.9418 115.859 28.9228 115.644 28.9511C115.427 28.9818 115.217 29.0633 115.013 29.1955L114.393 28.3992C114.671 28.1948 114.982 28.0636 115.324 28.0059C115.665 27.9504 116.02 27.972 116.389 28.0709C116.755 28.172 117.117 28.3541 117.474 28.6173Z" fill="white"/>
<path d="M104.443 24.3102L102.8 27.8134L101.889 27.3863L104.668 21.4603L105.579 21.8873L105.108 22.8904L105.17 22.9194C105.45 22.6836 105.786 22.529 106.178 22.4556C106.569 22.3848 106.989 22.4543 107.436 22.6642C107.807 22.8379 108.098 23.0733 108.31 23.3705C108.521 23.6702 108.631 24.0233 108.641 24.4297C108.65 24.8387 108.537 25.2953 108.3 25.7994L106.534 29.5649L105.624 29.1379L107.361 25.4341C107.563 25.002 107.604 24.6006 107.483 24.23C107.359 23.8582 107.108 23.5837 106.73 23.4063C106.504 23.3002 106.247 23.2501 105.958 23.2561C105.667 23.2608 105.386 23.3454 105.114 23.5098C104.84 23.673 104.616 23.9398 104.443 24.3102Z" fill="white"/>
<path d="M97.9249 19.1061L96.2562 25.4352L95.3167 25.1875L95.5687 24.2316L95.5028 24.2142C95.3049 24.4969 95.0291 24.696 94.6755 24.8114C94.3219 24.9267 93.9556 24.9344 93.5765 24.8345C93.505 24.8157 93.4161 24.7907 93.3097 24.7598C93.2033 24.7288 93.1234 24.7033 93.0699 24.6833L93.3306 23.6944C93.3614 23.7113 93.4337 23.7436 93.5475 23.7912C93.6578 23.8408 93.7775 23.8827 93.9066 23.9167C94.2143 23.9979 94.506 24.0057 94.7818 23.9403C95.0541 23.877 95.29 23.7512 95.4895 23.5628C95.6855 23.3765 95.8211 23.1406 95.8965 22.8549L96.9525 18.8497L97.9249 19.1061Z" fill="white"/>
<path d="M75.1934 21.0717L75.1347 20.136L78.9454 19.897L79.0041 20.8327L75.1934 21.0717Z" fill="white"/>
<path d="M159.5 80.5C159.5 124.686 123.904 160.5 80 160.5C36.0963 160.5 0.5 124.686 0.5 80.5C0.5 36.3143 36.0963 0.5 80 0.5C123.904 0.5 159.5 36.3143 159.5 80.5Z" stroke="white"/>
<path d="M79.2954 116.182V82.8594H90.6372C93.2596 82.8594 95.4123 83.3042 97.0949 84.1938C98.7776 85.0724 100.023 86.2816 100.831 87.8219C101.64 89.3625 102.045 91.1143 102.045 93.0776C102.045 95.0409 101.64 96.7816 100.831 98.3005C100.023 99.819 98.783 101.012 97.1111 101.88C95.4396 102.737 93.3033 103.165 90.7028 103.165H81.5244V99.5208H90.5716C92.3636 99.5208 93.8059 99.2604 94.8984 98.7396C96.0023 98.2192 96.7999 97.4815 97.2915 96.5269C97.7942 95.5613 98.0453 94.4117 98.0453 93.0776C98.0453 91.7431 97.7942 90.5771 97.2915 89.5794C96.7888 88.5813 95.9857 87.8112 94.8823 87.269C93.7786 86.7157 92.3199 86.4389 90.5061 86.4389H83.3601V116.182H79.2954ZM95.0953 101.213L103.356 116.182H98.6353L90.5061 101.213H95.0953Z" fill="white"/>
<path d="M61.4415 81.8182H57.1802L69.5053 48.4958H73.7011L86.0263 81.8182H81.765L71.7344 53.7675H71.4721L61.4415 81.8182ZM63.015 68.8016H80.1915V72.3812H63.015V68.8016Z" fill="white"/>
<path d="M79.077 70.3636H63.6924V81.8182H79.077V70.3636Z" fill="white"/>
<path d="M82.9231 74.1818H79.0769V81.8181H82.9231V74.1818Z" fill="white"/>
<path d="M63.6923 74.1818H59.8462V81.8181H63.6923V74.1818Z" fill="white"/>
<path d="M98.3077 85.6364H82.9231V100.909H98.3077V85.6364Z" fill="white"/>
<path d="M91.0633 95.1383L87.5449 96.9172V96.223L90.2438 94.9325L90.222 94.9756V94.8672L90.2438 94.9107L87.5449 93.6198V92.9257L91.0633 94.7046V95.1383Z" fill="black"/>
<path d="M68.3142 76.0474V75.6136L71.8326 73.8347V74.5289L69.1337 75.8198L69.1556 75.7763V75.8847L69.1337 75.8416L71.8326 77.1321V77.8263L68.3142 76.0474Z" fill="black"/>
</svg>
