<svg width="165" height="166" viewBox="0 0 165 166" fill="none" xmlns="http://www.w3.org/2000/svg">
<path d="M76.3441 22.0939L76.2643 21.1598L80.0686 20.8346L80.1484 21.7687L76.3441 22.0939Z" fill="black"/>
<path d="M58.7777 22.2119L59.7808 21.7414L60.5853 31.0035L59.5976 31.4668L52.9905 24.926L53.9937 24.4556L59.4743 29.9996L59.5361 29.9706L58.7777 22.2119ZM59.8549 25.4721L55.8116 27.3684L55.4135 26.5196L59.4568 24.6233L59.8549 25.4721Z" fill="black"/>
<path d="M47.9416 32.7323L45.5263 29.6226L46.3206 29.0057L50.3356 34.175L49.5683 34.771L48.9409 33.9633L48.8736 34.0156C48.9564 34.3722 48.9362 34.726 48.8131 35.077C48.6918 35.4302 48.4359 35.7584 48.0455 36.0617C47.6955 36.3335 47.3335 36.4996 46.9595 36.5599C46.5872 36.6224 46.2157 36.5656 45.8451 36.3894C45.4762 36.2155 45.121 35.9087 44.7794 35.4689L42.2282 32.1842L43.0224 31.5673L45.5318 34.7982C45.8472 35.2043 46.1984 35.4388 46.5853 35.5016C46.974 35.5666 47.3523 35.4562 47.7202 35.1704C47.9738 34.9735 48.1577 34.7425 48.272 34.4775C48.384 34.2142 48.4154 33.9327 48.366 33.6329C48.3166 33.3331 48.1751 33.0329 47.9416 32.7323Z" fill="black"/>
<path d="M39.1342 44.4512L38.4943 43.8883L40.7347 41.3414L41.3746 41.9043L39.1342 44.4512ZM41.8991 43.6824L41.2348 44.4375L36.5506 40.317C36.3373 40.1293 36.1501 40.0195 35.989 39.9876C35.8282 39.9596 35.6865 39.9788 35.5639 40.045C35.4416 40.1152 35.3317 40.2058 35.2341 40.3167C35.1609 40.3999 35.1052 40.4719 35.0668 40.5328C35.0305 40.5955 35.0015 40.6456 34.9798 40.6833L34.1664 40.2402C34.1922 40.1721 34.2359 40.0837 34.2974 39.9751C34.3567 39.8646 34.4483 39.739 34.5721 39.5982C34.7598 39.3849 34.9895 39.2162 35.2614 39.0921C35.5314 38.9702 35.8193 38.9245 36.1252 38.9553C36.4293 38.9882 36.7242 39.1303 37.01 39.3817L41.8991 43.6824Z" fill="black"/>
<path d="M32.4373 49.1073L29.0449 47.1083L29.5555 46.2419L37.0744 50.6725L36.5639 51.539L33.803 49.9121L33.7597 49.9855C33.9731 50.2893 34.0876 50.6239 34.1031 50.9892C34.1197 51.3583 33.9975 51.7644 33.7364 52.2075C33.51 52.5917 33.2346 52.8828 32.9102 53.0808C32.5883 53.2802 32.2225 53.3664 31.8131 53.3394C31.4046 53.3164 30.958 53.162 30.4734 52.8765L26.8902 50.765L27.4007 49.8985L30.9252 51.9754C31.3731 52.2393 31.788 52.3272 32.1698 52.2389C32.5525 52.1545 32.8643 51.9079 33.1052 51.4992C33.2725 51.2152 33.3625 50.9254 33.3753 50.6295C33.3866 50.3361 33.3155 50.0568 33.1618 49.7915C33.0068 49.5286 32.7652 49.3006 32.4373 49.1073Z" fill="black"/>
<path d="M22.3425 60.8544C22.5278 60.2933 22.8238 59.845 23.2307 59.5096C23.6368 59.177 24.119 58.9712 24.6776 58.8923C25.2353 58.8162 25.8351 58.8841 26.4772 59.096C27.1246 59.3098 27.6511 59.6137 28.0565 60.0078C28.461 60.4047 28.7273 60.8576 28.8554 61.3666C28.9827 61.8783 28.9537 62.4147 28.7684 62.9758C28.5832 63.537 28.2876 63.9838 27.8815 64.3165C27.4746 64.6519 26.991 64.8572 26.4306 64.9325C25.8694 65.0105 25.265 64.9426 24.6176 64.7288C23.9755 64.5169 23.4536 64.2129 23.0518 63.817C22.6491 63.4238 22.3841 62.9713 22.2569 62.4596C22.1287 61.9506 22.1573 61.4155 22.3425 60.8544ZM23.2004 61.1376C23.0597 61.5638 23.0531 61.9506 23.1808 62.2979C23.3085 62.6452 23.5285 62.9437 23.841 63.1935C24.1535 63.4432 24.5174 63.6367 24.9329 63.7738C25.3483 63.911 25.7572 63.9727 26.1597 63.959C26.5621 63.9452 26.9194 63.8373 27.2314 63.6352C27.5435 63.433 27.7698 63.1189 27.9106 62.6926C28.0513 62.2664 28.0565 61.8792 27.9261 61.531C27.7957 61.1828 27.573 60.8834 27.2578 60.6327C26.9427 60.3821 26.5774 60.1882 26.1619 60.051C25.7465 59.9139 25.3389 59.8526 24.9391 59.8672C24.5394 59.8819 24.1849 59.9907 23.8755 60.1937C23.5661 60.3967 23.3411 60.7114 23.2004 61.1376Z" fill="black"/>
<path d="M23.5793 72.9654L19.6636 72.5517L19.7693 71.5515L26.2785 72.2392L26.1764 73.2055L25.1593 73.098L25.1504 73.1828C25.4648 73.3702 25.7059 73.63 25.8737 73.9619C26.0442 74.2942 26.1036 74.7061 26.0516 75.1977C26.0051 75.6384 25.8739 76.0145 25.6582 76.326C25.4453 76.6377 25.1469 76.8661 24.7631 77.0113C24.382 77.1567 23.9146 77.2002 23.3609 77.1417L19.2248 76.7047L19.3305 75.7046L23.3988 76.1344C23.9101 76.1884 24.3225 76.0977 24.6359 75.8623C24.9521 75.6272 25.1347 75.2779 25.1837 74.8146C25.2174 74.4954 25.1783 74.2027 25.0665 73.9366C24.9543 73.6734 24.773 73.4557 24.5227 73.2836C24.2723 73.1114 23.9579 73.0054 23.5793 72.9654Z" fill="black"/>
<path d="M16.7529 86.0588C16.7359 85.8892 16.7348 85.7366 16.7497 85.6009C16.7618 85.4655 16.778 85.3711 16.7984 85.3176L17.7058 85.4834C17.6681 85.7328 17.6671 85.9499 17.7028 86.1347C17.7385 86.3196 17.8385 86.4766 18.0028 86.6057C18.1645 86.7379 18.4169 86.8481 18.7598 86.9365L19.2873 87.0719L25.5919 84.0058L25.701 85.0913L20.6919 87.4105L20.6987 87.4783L26.0691 88.7546L26.1781 89.8401L18.438 87.8254C18.0891 87.7348 17.7952 87.6087 17.5562 87.4471C17.3145 87.2858 17.1277 87.089 16.9958 86.8567C16.8643 86.6273 16.7833 86.3613 16.7529 86.0588Z" fill="black"/>
<path d="M24.1765 106.522L30.1294 103.801L30.5334 104.684L29.6342 105.095L29.6626 105.157C30.0067 105.131 30.3355 105.218 30.6489 105.419C30.9622 105.619 31.2004 105.898 31.3634 106.254C31.3941 106.321 31.4312 106.406 31.4747 106.508C31.5182 106.61 31.5492 106.688 31.5676 106.742L30.6375 107.167C30.631 107.132 30.6102 107.056 30.5749 106.938C30.5434 106.821 30.4999 106.702 30.4444 106.581C30.3121 106.291 30.1332 106.061 29.9079 105.889C29.6863 105.718 29.4394 105.616 29.1673 105.581C28.899 105.547 28.6304 105.592 28.3617 105.715L24.5946 107.437L24.1765 106.522Z" fill="black"/>
<path d="M33.6067 117.693L36.7792 115.478L37.3549 116.302L31.9882 120.05L31.4124 119.225L32.3209 118.591L32.2818 118.535C31.9215 118.599 31.5531 118.565 31.1767 118.433C30.8026 118.3 30.4741 118.03 30.1911 117.625C29.9569 117.289 29.8221 116.94 29.7867 116.577C29.7536 116.212 29.8341 115.85 30.0282 115.493C30.2246 115.134 30.551 114.795 31.0076 114.477L34.4177 112.096L34.9934 112.92L31.6392 115.262C31.2479 115.535 31.0122 115.863 30.9322 116.244C30.8537 116.628 30.9341 116.992 31.1731 117.334C31.3163 117.539 31.5142 117.711 31.767 117.85C32.0215 117.991 32.3074 118.058 32.6249 118.051C32.944 118.047 33.2712 117.927 33.6067 117.693Z" fill="black"/>
<path d="M36.9232 125.863L42.9094 119.513L43.6413 120.202L41.4315 122.547L41.4935 122.605C41.6252 122.573 41.799 122.538 42.0149 122.499C42.2348 122.461 42.4825 122.475 42.7578 122.544C43.0372 122.612 43.3319 122.792 43.642 123.084C44.043 123.462 44.302 123.896 44.419 124.385C44.5359 124.874 44.5067 125.383 44.3314 125.913C44.1562 126.442 43.8327 126.957 43.3612 127.458C42.8857 127.962 42.3878 128.318 41.8674 128.527C41.3489 128.733 40.8423 128.794 40.3474 128.71C39.8545 128.624 39.4096 128.394 39.0127 128.02C38.7068 127.732 38.5095 127.45 38.421 127.176C38.3345 126.899 38.303 126.648 38.3265 126.425C38.352 126.199 38.3788 126.017 38.4069 125.88L38.32 125.798L37.6302 126.53L36.9232 125.863ZM39.8875 124.16C39.5484 124.52 39.302 124.887 39.1483 125.261C38.9965 125.633 38.9488 125.992 39.0052 126.338C39.0636 126.682 39.2396 126.993 39.5332 127.269C39.8391 127.558 40.1704 127.718 40.5271 127.749C40.8877 127.781 41.2493 127.708 41.6119 127.53C41.9784 127.353 42.3215 127.095 42.6411 126.755C42.9567 126.421 43.1896 126.07 43.3395 125.704C43.4935 125.338 43.5412 124.978 43.4825 124.626C43.4279 124.274 43.2456 123.952 42.9355 123.66C42.6378 123.379 42.3165 123.219 41.9717 123.179C41.6288 123.137 41.279 123.201 40.9223 123.373C40.5676 123.542 40.2226 123.804 39.8875 124.16Z" fill="black"/>
<path d="M46.5407 136.957C46.3954 136.867 46.2733 136.776 46.1744 136.682C46.0739 136.59 46.0086 136.52 45.9784 136.472L46.66 135.85C46.8355 136.031 47.0076 136.163 47.1763 136.247C47.3451 136.33 47.5305 136.346 47.7328 136.293C47.936 136.245 48.1765 136.111 48.4545 135.891L48.8818 135.554L50.2606 128.68L51.1904 129.25L50.0019 134.641L50.06 134.677L54.3283 131.176L55.258 131.747L48.9669 136.686C48.6835 136.908 48.4052 137.066 48.1319 137.158C47.8571 137.253 47.5874 137.282 47.3227 137.247C47.0604 137.212 46.7997 137.116 46.5407 136.957Z" fill="black"/>
<path d="M71.7402 144.419L71.5415 145.335L66.2109 144.178L66.4096 143.262L71.7402 144.419Z" fill="black"/>
<path d="M89.6966 145.082L86.7596 138.902L87.8049 138.746L89.9426 143.495L90.0101 143.485L90.6541 138.322L91.7163 138.164L93.8178 142.9L93.8852 142.89L94.5487 137.742L95.5939 137.586L94.5859 144.354L93.608 144.5L91.4509 139.737L91.3497 139.752L90.6745 144.937L89.6966 145.082Z" fill="black"/>
<path d="M106.2 141.162C105.612 141.39 105.054 141.457 104.527 141.363C104.001 141.265 103.533 141.026 103.12 140.646C102.71 140.263 102.384 139.759 102.141 139.134C101.899 138.509 101.799 137.913 101.842 137.348C101.887 136.78 102.063 136.282 102.37 135.855C102.678 135.425 103.108 135.103 103.659 134.889C103.977 134.766 104.311 134.697 104.662 134.683C105.013 134.669 105.362 134.732 105.709 134.872C106.054 135.009 106.378 135.243 106.68 135.574C106.982 135.905 107.243 136.355 107.464 136.925L107.618 137.322L102.913 139.145L102.599 138.335L106.35 136.881C106.217 136.537 106.029 136.256 105.786 136.039C105.547 135.821 105.271 135.683 104.958 135.624C104.649 135.565 104.324 135.6 103.985 135.732C103.612 135.876 103.325 136.094 103.124 136.386C102.924 136.673 102.809 136.992 102.777 137.343C102.745 137.693 102.795 138.037 102.925 138.373L103.134 138.913C103.313 139.374 103.544 139.734 103.827 139.993C104.112 140.248 104.43 140.404 104.78 140.46C105.13 140.513 105.494 140.467 105.873 140.32C106.12 140.224 106.329 140.104 106.501 139.958C106.674 139.808 106.807 139.635 106.898 139.438C106.988 139.239 107.032 139.018 107.029 138.775L108.034 138.678C108.058 139.022 108.002 139.355 107.867 139.675C107.731 139.993 107.523 140.281 107.242 140.539C106.96 140.794 106.613 141.002 106.2 141.162Z" fill="black"/>
<path d="M115.195 136.76L110.448 129.437L111.292 128.89L113.044 131.593L113.115 131.546C113.116 131.411 113.123 131.234 113.136 131.015C113.151 130.792 113.224 130.555 113.356 130.304C113.489 130.049 113.734 129.805 114.091 129.573C114.554 129.274 115.036 129.125 115.539 129.127C116.042 129.13 116.529 129.279 117.002 129.575C117.475 129.871 117.899 130.308 118.273 130.885C118.65 131.467 118.878 132.035 118.956 132.59C119.034 133.142 118.973 133.649 118.774 134.11C118.573 134.568 118.244 134.946 117.786 135.242C117.434 135.471 117.113 135.596 116.825 135.617C116.536 135.635 116.285 135.606 116.073 135.53C115.86 135.452 115.69 135.383 115.563 135.323L115.463 135.387L116.01 136.231L115.195 136.76ZM114.244 133.476C114.513 133.891 114.811 134.217 115.138 134.455C115.464 134.691 115.801 134.823 116.151 134.85C116.499 134.875 116.842 134.778 117.181 134.559C117.533 134.33 117.767 134.046 117.883 133.707C117.999 133.364 118.014 132.996 117.928 132.601C117.842 132.203 117.673 131.809 117.42 131.418C117.169 131.031 116.884 130.722 116.564 130.489C116.245 130.253 115.907 130.121 115.551 130.094C115.196 130.064 114.84 130.165 114.482 130.396C114.139 130.619 113.907 130.893 113.786 131.218C113.664 131.541 113.644 131.896 113.725 132.284C113.805 132.668 113.978 133.066 114.244 133.476Z" fill="black"/>
<path d="M134.168 119.998C133.845 120.438 133.449 120.744 132.979 120.917C132.508 121.088 131.998 121.119 131.451 121.01C130.902 120.898 130.348 120.637 129.789 120.226C129.236 119.819 128.825 119.371 128.557 118.881C128.29 118.392 128.169 117.896 128.197 117.394C128.224 116.892 128.401 116.419 128.727 115.975C128.98 115.632 129.236 115.402 129.497 115.288C129.757 115.169 129.998 115.11 130.22 115.11C130.441 115.107 130.619 115.109 130.754 115.117L130.805 115.049L128.21 113.14L128.806 112.33L135.836 117.501L135.26 118.283L134.45 117.687L134.379 117.784C134.432 117.914 134.491 118.088 134.556 118.305C134.62 118.521 134.634 118.773 134.598 119.061C134.561 119.347 134.417 119.659 134.168 119.998ZM133.521 119.353C133.76 119.028 133.878 118.691 133.873 118.342C133.867 117.992 133.755 117.647 133.539 117.308C133.32 116.968 133.012 116.651 132.614 116.358C132.22 116.068 131.834 115.872 131.454 115.77C131.073 115.665 130.717 115.665 130.387 115.768C130.055 115.869 129.768 116.084 129.526 116.414C129.273 116.757 129.151 117.108 129.159 117.467C129.166 117.821 129.277 118.166 129.493 118.501C129.708 118.832 130.001 119.134 130.372 119.406C130.747 119.682 131.13 119.876 131.521 119.987C131.911 120.094 132.28 120.101 132.627 120.007C132.974 119.91 133.272 119.692 133.521 119.353Z" fill="black"/>
<path d="M141.282 108.035C141.02 108.609 140.667 109.045 140.224 109.346C139.779 109.642 139.277 109.798 138.716 109.814C138.155 109.826 137.569 109.693 136.96 109.414C136.35 109.135 135.863 108.778 135.5 108.343C135.135 107.905 134.913 107.426 134.836 106.906C134.756 106.382 134.839 105.852 135.085 105.314C135.227 105.004 135.418 104.722 135.66 104.467C135.902 104.212 136.195 104.013 136.541 103.872C136.885 103.729 137.28 103.67 137.727 103.697C138.174 103.723 138.675 103.863 139.231 104.117L139.618 104.294L137.521 108.883L136.73 108.522L138.403 104.863C138.067 104.71 137.736 104.64 137.411 104.654C137.088 104.665 136.793 104.758 136.529 104.934C136.265 105.107 136.058 105.359 135.907 105.69C135.74 106.054 135.687 106.411 135.746 106.76C135.804 107.105 135.943 107.414 136.165 107.687C136.387 107.96 136.662 108.172 136.99 108.322L137.517 108.563C137.967 108.768 138.383 108.865 138.767 108.853C139.149 108.837 139.485 108.727 139.775 108.522C140.063 108.316 140.292 108.029 140.46 107.659C140.57 107.419 140.636 107.187 140.657 106.962C140.677 106.734 140.651 106.517 140.579 106.313C140.505 106.107 140.382 105.918 140.211 105.746L140.863 104.976C141.12 105.206 141.312 105.482 141.439 105.806C141.563 106.128 141.615 106.48 141.594 106.861C141.57 107.241 141.466 107.632 141.282 108.035Z" fill="black"/>
<path d="M139.455 92.0299L145.27 95.8881L145.035 96.8835L138.109 97.737L138.36 96.6752L143.851 96.1138L143.867 96.0475L139.205 93.0917L139.455 92.0299Z" fill="black"/>
<path d="M147.021 83.6013C147 84.2316 146.842 84.7705 146.548 85.218C146.251 85.6626 145.847 85.9998 145.336 86.2295C144.822 86.4563 144.23 86.5581 143.56 86.5351C142.89 86.512 142.304 86.3696 141.801 86.1078C141.296 85.8431 140.907 85.4858 140.636 85.0358C140.362 84.5829 140.234 84.0612 140.255 83.4707C140.267 83.1299 140.335 82.7955 140.46 82.4672C140.585 82.1389 140.78 81.8429 141.045 81.5791C141.307 81.3152 141.649 81.1096 142.072 80.9621C142.495 80.8146 143.012 80.7514 143.622 80.7724L144.048 80.7871L143.875 85.8295L143.006 85.7996L143.144 81.7793C142.775 81.7666 142.443 81.8291 142.149 81.9667C141.854 82.1016 141.618 82.301 141.442 82.5649C141.265 82.826 141.17 83.1383 141.158 83.5017C141.144 83.9021 141.231 84.2519 141.42 84.5512C141.606 84.8475 141.854 85.0792 142.164 85.2462C142.473 85.4132 142.809 85.5029 143.169 85.5153L143.748 85.5352C144.242 85.5523 144.664 85.4815 145.014 85.323C145.36 85.1615 145.628 84.9305 145.818 84.6301C146.004 84.3295 146.105 83.9762 146.119 83.5702C146.128 83.3061 146.099 83.0664 146.032 82.8509C145.963 82.6325 145.856 82.4426 145.711 82.2812C145.563 82.1198 145.377 81.9926 145.153 81.8996L145.459 80.938C145.785 81.0515 146.068 81.2333 146.31 81.4832C146.548 81.733 146.731 82.0378 146.858 82.3975C146.982 82.7571 147.037 83.1583 147.021 83.6013Z" fill="black"/>
<path d="M137.679 73.9271L146.333 72.7966L146.463 73.7938L137.81 74.9243L137.679 73.9271Z" fill="black"/>
<path d="M144.312 62.8937C144.488 63.4578 144.508 63.9946 144.373 64.5042C144.236 65.011 143.964 65.4591 143.555 65.8483C143.146 66.2349 142.619 66.5289 141.974 66.7303C141.323 66.9334 140.718 66.9927 140.159 66.9082C139.599 66.821 139.119 66.6078 138.718 66.2685C138.317 65.9265 138.028 65.4734 137.852 64.9093C137.676 64.3452 137.656 63.8098 137.793 63.3029C137.929 62.7934 138.202 62.3449 138.614 61.9575C139.025 61.5674 139.556 61.2708 140.207 61.0677C140.852 60.8663 141.454 60.8096 142.011 60.8977C142.567 60.983 143.046 61.1966 143.447 61.5387C143.848 61.8779 144.136 62.3296 144.312 62.8937ZM143.45 63.1628C143.316 62.7343 143.096 62.416 142.79 62.208C142.484 61.9999 142.131 61.8852 141.732 61.864C141.333 61.8429 140.924 61.8974 140.506 62.0277C140.089 62.158 139.72 62.3459 139.401 62.5913C139.082 62.8368 138.854 63.1325 138.718 63.4785C138.582 63.8245 138.581 64.2117 138.715 64.6402C138.848 65.0687 139.069 65.3866 139.378 65.5938C139.687 65.8011 140.042 65.9148 140.444 65.9352C140.847 65.9555 141.256 65.9005 141.674 65.7702C142.092 65.6399 142.459 65.4525 142.775 65.2079C143.092 64.9633 143.317 64.6684 143.45 64.3233C143.584 63.9781 143.583 63.5913 143.45 63.1628Z" fill="black"/>
<path d="M142.313 51.4867L134.485 55.9278L134.005 55.0827L134.91 54.5696L134.851 54.4658C134.715 54.4577 134.539 54.4402 134.321 54.4135C134.1 54.3856 133.867 54.2986 133.624 54.1523C133.377 54.005 133.149 53.746 132.938 53.3753C132.667 52.896 132.547 52.4054 132.579 51.9038C132.611 51.4021 132.789 50.9239 133.112 50.4693C133.436 50.0147 133.897 49.6178 134.495 49.2785C135.097 48.9365 135.678 48.7425 136.237 48.6967C136.793 48.6522 137.295 48.7429 137.743 48.9688C138.189 49.196 138.547 49.5468 138.816 50.0213C139.023 50.387 139.129 50.7141 139.133 51.0027C139.134 51.2927 139.09 51.5412 139.002 51.7481C138.911 51.9564 138.832 52.1222 138.765 52.2453L138.807 52.3194L141.816 50.6119L142.313 51.4867ZM136.843 53.4529C137.273 53.209 137.617 52.9308 137.874 52.6183C138.129 52.3073 138.28 51.9781 138.328 51.6308C138.373 51.2849 138.296 50.9365 138.097 50.5857C137.89 50.22 137.62 49.9695 137.289 49.8342C136.954 49.6979 136.586 49.6611 136.188 49.724C135.785 49.7859 135.381 49.9317 134.976 50.1616C134.576 50.3887 134.25 50.6552 133.999 50.961C133.744 51.2657 133.593 51.5949 133.545 51.9485C133.493 52.3011 133.573 52.6627 133.783 53.0333C133.985 53.3891 134.245 53.6369 134.563 53.7768C134.878 53.918 135.231 53.9592 135.622 53.9005C136.011 53.8433 136.418 53.694 136.843 53.4529Z" fill="black"/>
<path d="M134.612 39.5939L127.903 45.5935L127.255 44.8693L128.03 44.1762L127.951 44.0872C127.817 44.1079 127.641 44.1283 127.422 44.1483C127.2 44.1681 126.955 44.1322 126.686 44.0408C126.413 43.9492 126.135 43.7445 125.851 43.4269C125.484 43.0161 125.263 42.5621 125.188 42.065C125.113 41.5679 125.185 41.0629 125.405 40.55C125.625 40.0372 125.991 39.5516 126.503 39.0933C127.02 38.6312 127.546 38.3185 128.083 38.1553C128.617 37.994 129.127 37.9761 129.613 38.1018C130.096 38.2294 130.52 38.4965 130.884 38.9031C131.164 39.2165 131.337 39.5138 131.401 39.7951C131.464 40.0782 131.474 40.3303 131.432 40.5512C131.387 40.7741 131.345 40.9528 131.305 41.0874L131.362 41.1509L133.941 38.8443L134.612 39.5939ZM129.684 42.6749C130.052 42.3454 130.329 42.0007 130.514 41.6408C130.697 41.2828 130.775 40.9291 130.748 40.5795C130.719 40.2318 130.57 39.9077 130.301 39.607C130.021 39.2936 129.705 39.1059 129.352 39.044C128.995 38.9818 128.629 39.0237 128.252 39.1697C127.872 39.3155 127.508 39.5437 127.161 39.8543C126.818 40.1611 126.556 40.4905 126.375 40.8426C126.191 41.1945 126.113 41.5482 126.141 41.9039C126.166 42.2594 126.32 42.5959 126.604 42.9136C126.877 43.2185 127.183 43.4056 127.523 43.4749C127.861 43.5461 128.215 43.5115 128.585 43.3712C128.953 43.2327 129.319 43.0007 129.684 42.6749Z" fill="black"/>
<path d="M120.99 29.8768C121.497 30.2513 121.852 30.6863 122.055 31.1819C122.254 31.6781 122.303 32.2019 122.204 32.7533C122.1 33.3052 121.849 33.8509 121.451 34.3904C121.053 34.9299 120.604 35.3328 120.103 35.5992C119.599 35.8662 119.085 35.9844 118.56 35.9538C118.032 35.9239 117.529 35.7334 117.054 35.3826C116.78 35.1802 116.543 34.9346 116.343 34.6458C116.143 34.357 116.009 34.0287 115.941 33.6611C115.872 33.2957 115.896 32.8969 116.014 32.4647C116.131 32.0326 116.371 31.5707 116.734 31.0793L116.987 30.7364L121.047 33.7322L120.531 34.4317L117.294 32.0431C117.075 32.3403 116.938 32.6493 116.885 32.9702C116.83 33.2894 116.861 33.5965 116.978 33.8917C117.094 34.1851 117.298 34.4398 117.59 34.6557C117.913 34.8935 118.251 35.0193 118.604 35.033C118.954 35.0473 119.285 34.974 119.598 34.8131C119.911 34.6521 120.174 34.4265 120.389 34.1362L120.733 33.6698C121.026 33.2721 121.207 32.8843 121.273 32.5065C121.336 32.1293 121.298 31.7776 121.157 31.4514C121.015 31.1275 120.78 30.8449 120.453 30.6037C120.241 30.4469 120.027 30.3349 119.811 30.2678C119.592 30.2013 119.375 30.1823 119.16 30.2107C118.943 30.2413 118.733 30.3228 118.529 30.4551L117.909 29.6587C118.187 29.4543 118.498 29.3232 118.841 29.2654C119.182 29.2099 119.536 29.2316 119.905 29.3304C120.271 29.4315 120.633 29.6137 120.99 29.8768Z" fill="black"/>
<path d="M107.705 25.3939L106.062 28.8971L105.152 28.4701L107.931 22.544L108.841 22.971L108.371 23.9742L108.433 24.0031C108.713 23.7673 109.049 23.6127 109.441 23.5393C109.832 23.4685 110.251 23.538 110.699 23.7479C111.069 23.9217 111.36 24.1571 111.572 24.4542C111.783 24.7539 111.894 25.107 111.904 25.5135C111.913 25.9225 111.799 26.379 111.563 26.8831L109.797 30.6487L108.886 30.2216L110.623 26.5178C110.826 26.0857 110.867 25.6844 110.746 25.3138C110.622 24.942 110.371 24.6674 109.993 24.4901C109.766 24.3839 109.509 24.3338 109.221 24.3398C108.93 24.3446 108.649 24.4292 108.377 24.5936C108.103 24.7568 107.879 25.0236 107.705 25.3939Z" fill="black"/>
<path d="M100.899 20.0671L99.2301 26.3963L98.2906 26.1486L98.5426 25.1926L98.4767 25.1753C98.2787 25.458 98.003 25.6571 97.6494 25.7724C97.2958 25.8878 96.9294 25.8955 96.5503 25.7956C96.4789 25.7767 96.39 25.7518 96.2836 25.7208C96.1772 25.6898 96.0972 25.6643 96.0437 25.6444L96.3045 24.6554C96.3353 24.6724 96.4076 24.7046 96.5213 24.7523C96.6316 24.8019 96.7514 24.8438 96.8805 24.8778C97.1881 24.9589 97.4799 24.9668 97.7556 24.9014C98.0279 24.8381 98.2638 24.7122 98.4633 24.5239C98.6593 24.3376 98.795 24.1016 98.8703 23.8159L99.9263 19.8107L100.899 20.0671Z" fill="black"/>
<path d="M77.6885 21.9584L77.6299 21.0227L81.4405 20.7837L81.4992 21.7194L77.6885 21.9584Z" fill="black"/>
<path d="M164.469 83C164.469 128.566 127.76 165.5 82.4845 165.5C37.2086 165.5 0.5 128.566 0.5 83C0.5 37.4336 37.2086 0.5 82.4845 0.5C127.76 0.5 164.469 37.4336 164.469 83Z" stroke="black"/>
<path d="M81.7583 119.79V85.4327H93.4523C96.1561 85.4327 98.3757 85.8914 100.111 86.8086C101.846 87.7145 103.13 88.9613 103.963 90.5493C104.797 92.1378 105.214 93.944 105.214 95.9683C105.214 97.9926 104.797 99.7873 103.963 101.353C103.13 102.919 101.851 104.149 100.127 105.044C98.4038 105.927 96.2012 106.369 93.5199 106.369H84.0565V102.612H93.3847C95.2323 102.612 96.7194 102.343 97.8459 101.806C98.984 101.27 99.8065 100.509 100.313 99.5248C100.832 98.5291 101.091 97.3438 101.091 95.9683C101.091 94.5924 100.832 93.3901 100.313 92.3614C99.795 91.3324 98.9669 90.5383 97.8292 89.9793C96.6912 89.4089 95.1872 89.1234 93.3171 89.1234H85.9492V119.79H81.7583ZM98.0489 104.356L106.566 119.79H101.699L93.3171 104.356H98.0489Z" fill="black"/>
<path d="M63.4318 84H59L71.8182 50H76.1818L89 84H84.5682L74.1364 55.3789H73.8636L63.4318 84ZM65.0682 70.7187H82.9318V74.3711H65.0682V70.7187Z" fill="black"/>
<path d="M83 73H65V84H83V73Z" fill="black"/>
<path d="M85 76H82V84H85V76Z" fill="black"/>
<path d="M66 76H62V84H66V76Z" fill="black"/>
<path d="M101.361 88.2959H85.4985V104.043H101.361V88.2959Z" fill="black"/>
<path d="M93.8916 98.0929L90.2639 99.927V99.2113L93.0466 97.8807L93.0241 97.9252V97.8134L93.0466 97.8582L90.2639 96.5272V95.8115L93.8916 97.6457V98.0929Z" fill="white"/>
<path d="M70.436 78.4091V77.9619L74.0637 76.1277V76.8434L71.281 78.1744L71.3035 78.1296V78.2414L71.281 78.1969L74.0637 79.5275V80.2432L70.436 78.4091Z" fill="white"/>
</svg>
