<svg width="42" height="42" viewBox="0 0 42 42" fill="none" xmlns="http://www.w3.org/2000/svg">
<path d="M41.906 1.80022C42.0015 1.5617 42.0249 1.30041 41.9732 1.04874C41.9216 0.797069 41.7972 0.566083 41.6156 0.384418C41.4339 0.202753 41.2029 0.0783994 40.9513 0.026773C40.6996 -0.0248534 40.4383 -0.00148204 40.1998 0.0939898L2.01527 15.3687H2.01265L0.826189 15.8412C0.601472 15.9308 0.405903 16.0808 0.261088 16.2746C0.116272 16.4684 0.0278444 16.6985 0.00557326 16.9394C-0.0166979 17.1803 0.028054 17.4227 0.134886 17.6398C0.241717 17.8569 0.40647 18.0402 0.610947 18.1695L1.68716 18.852L1.68978 18.8573L14.8012 27.1994L23.1432 40.3111L23.1484 40.3164L23.8309 41.3926C23.9606 41.5963 24.144 41.7602 24.3609 41.8664C24.5779 41.9725 24.8199 42.0168 25.0603 41.9943C25.3007 41.9717 25.5303 41.8833 25.7237 41.7387C25.9171 41.5941 26.0669 41.399 26.1566 41.1747L41.906 1.80022ZM37.0972 6.76141L17.4235 26.4329L16.8591 25.5457C16.7557 25.3829 16.6177 25.2448 16.4549 25.1414L15.5677 24.5771L35.2387 4.90555L38.3309 3.66919L37.0972 6.76141Z" fill="black"/>
</svg>
