<svg width="42" height="42" viewBox="0 0 42 42" fill="none" xmlns="http://www.w3.org/2000/svg">
<path d="M17.9201 17.7567C15.4495 20.1921 13.542 23.1388 12.3317 26.39L15.8317 30.7883C15.9215 30.9187 15.9696 31.0733 15.9696 31.2317C15.9696 31.39 15.9215 31.5446 15.8317 31.675L10.5701 39.8417C10.3837 40.1517 10.1277 40.4142 9.82247 40.6083C9.51721 40.8024 9.17099 40.9229 8.81116 40.9603C8.45134 40.9976 8.08776 40.9508 7.74914 40.8234C7.41053 40.6961 7.10615 40.4918 6.86006 40.2267L3.08006 36.4C2.53858 35.852 2.1412 35.1784 1.92337 34.4395C1.70555 33.7005 1.67406 32.9191 1.83173 32.165C3.38535 24.6426 7.02398 17.709 12.3317 12.1567C17.6923 6.72756 24.5131 2.97065 31.9667 1.34166C32.7091 1.18074 33.4805 1.21432 34.2062 1.43917C34.9318 1.66401 35.587 2.07248 36.1084 2.62499L39.9351 6.59166C40.1873 6.83713 40.3808 7.13648 40.5009 7.4673C40.6211 7.79812 40.6648 8.15184 40.6289 8.50197C40.593 8.8521 40.4784 9.18958 40.2936 9.48912C40.1087 9.78866 39.8586 10.0425 39.5617 10.2317L31.5001 15.6683C31.3735 15.7621 31.2201 15.8127 31.0626 15.8127C30.905 15.8127 30.7517 15.7621 30.6251 15.6683L26.3201 12.0867C23.134 13.3298 20.2646 15.2667 17.9201 17.7567Z" fill="black"/>
</svg>
